<svg version="1.1" id="Layer_1" xmlns="http://www.w3.org/2000/svg" xmlns:xlink="http://www.w3.org/1999/xlink" x="0px" y="0px"
	 width="100%" viewBox="0 0 1280 1280" enable-background="new 0 0 1280 1280" xml:space="preserve">
<path fill="#FEEED7" opacity="1.000000" stroke="none" 
	d="
M1.000000,490.000000 
	C1.000000,326.666656 1.000000,163.833328 1.000000,1.000000 
	C427.666656,1.000000 854.333313,1.000000 1281.000000,1.000000 
	C1281.000000,427.666656 1281.000000,854.333313 1281.000000,1281.000000 
	C854.333313,1281.000000 427.666656,1281.000000 1.000000,1281.000000 
	C1.000000,1017.500000 1.000000,754.000000 1.000000,490.000000 
M880.951660,1081.493408 
	C895.135498,1072.974487 909.745605,1065.084229 923.418701,1055.812134 
	C956.791504,1033.180908 987.656677,1007.586670 1015.036560,977.750732 
	C1034.521973,956.517334 1052.817017,934.397522 1068.213745,910.125549 
	C1079.756592,891.928711 1090.543945,873.099182 1099.859009,853.683716 
	C1110.177490,832.176697 1119.730225,810.113525 1127.271484,787.510254 
	C1136.929443,758.563293 1143.944336,728.744324 1147.100952,698.253723 
	C1149.098389,678.959778 1150.751099,659.608948 1151.762817,640.242126 
	C1152.342163,629.152283 1151.758789,617.947327 1150.935181,606.850830 
	C1149.610474,588.998474 1148.223267,571.116089 1145.830444,553.385681 
	C1142.228394,526.696045 1136.049927,500.481232 1127.721924,474.878204 
	C1113.250732,430.388641 1093.413330,388.368195 1067.172852,349.576263 
	C1057.343994,335.046112 1046.640137,321.062500 1035.664429,307.367432 
	C1026.432007,295.847565 1016.786682,284.542084 1006.309937,274.165802 
	C993.338013,261.318420 979.814514,248.915039 965.619934,237.445312 
	C950.027588,224.846161 934.072693,212.438721 917.051392,201.931137 
	C896.573547,189.289734 875.052734,178.247192 853.531311,167.410278 
	C828.230835,154.670471 801.357056,145.774887 774.093445,138.317337 
	C737.790833,128.387344 700.697693,122.788338 663.116455,121.244438 
	C646.023010,120.542221 628.810242,120.998779 611.731750,122.134285 
	C591.893311,123.453300 571.917542,124.876045 552.413574,128.482697 
	C530.275940,132.576370 508.361969,138.365936 486.788116,144.869019 
	C469.335114,150.129959 452.395447,157.210754 435.484375,164.112350 
	C423.651550,168.941467 411.930481,174.242996 400.722900,180.364899 
	C376.358063,193.673645 352.788391,208.349350 331.062347,225.713913 
	C317.709381,236.386322 304.444885,247.243988 291.927521,258.865967 
	C279.917480,270.016907 268.489197,281.876251 257.601837,294.131897 
	C246.374268,306.770569 235.417084,319.770081 225.608429,333.515686 
	C215.138214,348.188416 205.572205,363.591125 196.679657,379.280609 
	C188.099167,394.419586 180.014847,409.967041 173.285004,425.995239 
	C164.997391,445.733582 157.351166,465.860138 151.219162,486.354919 
	C143.279831,512.890198 136.943512,539.917114 134.817734,567.713074 
	C133.641617,583.091553 131.616165,598.439209 131.197571,613.834045 
	C130.438309,641.757568 130.523743,669.732178 135.030884,697.417664 
	C138.224945,717.037476 140.912643,736.848633 145.886887,756.040344 
	C151.372772,777.206055 159.037399,797.821167 166.075424,818.566711 
	C173.693451,841.021729 184.847900,861.920166 196.494690,882.409180 
	C211.113724,908.126892 227.946381,932.402954 247.164474,955.070312 
	C263.113983,973.882446 279.733704,991.914795 297.932648,1008.565491 
	C318.579498,1027.455688 340.530914,1044.646118 364.275879,1059.376831 
	C380.908264,1069.695190 397.781952,1079.845703 415.399414,1088.295898 
	C435.283691,1097.833496 455.838318,1106.182373 476.631989,1113.550903 
	C494.257721,1119.796753 512.523560,1124.387329 530.726929,1128.799316 
	C542.940796,1131.759644 555.484558,1133.588501 567.980042,1135.104248 
	C587.063232,1137.419067 606.197266,1139.651733 625.376526,1140.723877 
	C639.285889,1141.501343 653.348755,1140.948853 667.261841,1139.904907 
	C687.426941,1138.392212 707.616638,1136.576172 727.619507,1133.674316 
	C760.937195,1128.840820 793.122437,1119.213135 824.408569,1107.022339 
	C843.421814,1099.613647 861.690063,1090.292969 880.951660,1081.493408 
z"/>
<path fill="#D9C6A5" opacity="1.000000" stroke="none" 
	d="
M880.622314,1081.662354 
	C861.690063,1090.292969 843.421814,1099.613647 824.408569,1107.022339 
	C793.122437,1119.213135 760.937195,1128.840820 727.619507,1133.674316 
	C707.616638,1136.576172 687.426941,1138.392212 667.261841,1139.904907 
	C653.348755,1140.948853 639.285889,1141.501343 625.376526,1140.723877 
	C606.197266,1139.651733 587.063232,1137.419067 567.980042,1135.104248 
	C555.484558,1133.588501 542.940796,1131.759644 530.726929,1128.799316 
	C512.523560,1124.387329 494.257721,1119.796753 476.631989,1113.550903 
	C455.838318,1106.182373 435.283691,1097.833496 415.399414,1088.295898 
	C397.781952,1079.845703 380.908264,1069.695190 364.275879,1059.376831 
	C340.530914,1044.646118 318.579498,1027.455688 297.932648,1008.565491 
	C279.733704,991.914795 263.113983,973.882446 247.164474,955.070312 
	C227.946381,932.402954 211.113724,908.126892 196.494690,882.409180 
	C184.847900,861.920166 173.693451,841.021729 166.075424,818.566711 
	C159.037399,797.821167 151.372772,777.206055 145.886887,756.040344 
	C140.912643,736.848633 138.224945,717.037476 135.030884,697.417664 
	C130.523743,669.732178 130.438309,641.757568 131.197571,613.834045 
	C131.616165,598.439209 133.641617,583.091553 134.817734,567.713074 
	C136.943512,539.917114 143.279831,512.890198 151.219162,486.354919 
	C157.351166,465.860138 164.997391,445.733582 173.285004,425.995239 
	C180.014847,409.967041 188.099167,394.419586 196.679657,379.280609 
	C205.572205,363.591125 215.138214,348.188416 225.608429,333.515686 
	C235.417084,319.770081 246.374268,306.770569 257.601837,294.131897 
	C268.489197,281.876251 279.917480,270.016907 291.927521,258.865967 
	C304.444885,247.243988 317.709381,236.386322 331.062347,225.713913 
	C352.788391,208.349350 376.358063,193.673645 400.722900,180.364899 
	C411.930481,174.242996 423.651550,168.941467 435.484375,164.112350 
	C452.395447,157.210754 469.335114,150.129959 486.788116,144.869019 
	C508.361969,138.365936 530.275940,132.576370 552.413574,128.482697 
	C571.917542,124.876045 591.893311,123.453300 611.731750,122.134285 
	C628.810242,120.998779 646.023010,120.542221 663.116455,121.244438 
	C700.697693,122.788338 737.790833,128.387344 774.093445,138.317337 
	C801.357056,145.774887 828.230835,154.670471 853.531311,167.410278 
	C875.052734,178.247192 896.573547,189.289734 917.051392,201.931137 
	C934.072693,212.438721 950.027588,224.846161 965.619934,237.445312 
	C979.814514,248.915039 993.338013,261.318420 1006.309937,274.165802 
	C1016.786682,284.542084 1026.432007,295.847565 1035.664429,307.367432 
	C1046.640137,321.062500 1057.343994,335.046112 1067.172852,349.576263 
	C1093.413330,388.368195 1113.250732,430.388641 1127.721924,474.878204 
	C1136.049927,500.481232 1142.228394,526.696045 1145.830444,553.385681 
	C1148.223267,571.116089 1149.610474,588.998474 1150.935181,606.850830 
	C1151.758789,617.947327 1152.342163,629.152283 1151.762817,640.242126 
	C1150.751099,659.608948 1149.098389,678.959778 1147.100952,698.253723 
	C1143.944336,728.744324 1136.929443,758.563293 1127.271484,787.510254 
	C1119.730225,810.113525 1110.177490,832.176697 1099.859009,853.683716 
	C1090.543945,873.099182 1079.756592,891.928711 1068.213745,910.125549 
	C1052.817017,934.397522 1034.521973,956.517334 1015.036560,977.750732 
	C987.656677,1007.586670 956.791504,1033.180908 923.418701,1055.812134 
	C909.745605,1065.084229 895.135498,1072.974487 880.622314,1081.662354 
M353.147614,1012.453308 
	C356.723694,1016.710144 359.823914,1021.672607 366.515228,1021.467041 
	C366.515228,1021.467041 366.602631,1021.475525 366.256927,1022.263550 
	C366.588959,1023.097839 366.678040,1024.312134 367.292389,1024.704956 
	C371.330658,1027.287476 375.594940,1029.525146 379.572083,1032.193237 
	C386.662445,1036.949951 393.251678,1042.566528 400.687683,1046.668213 
	C411.326080,1052.536499 422.525024,1057.392334 433.537567,1062.567871 
	C434.134979,1062.848633 435.219147,1062.093750 436.641602,1061.826538 
	C437.137390,1062.069946 437.633179,1062.313354 438.063171,1063.393066 
	C438.633575,1064.610107 438.899200,1066.497925 439.830383,1066.921143 
	C442.885864,1068.309814 446.260071,1068.980469 449.371552,1070.266357 
	C456.064301,1073.032349 462.606995,1076.167603 469.334320,1078.841675 
	C473.376495,1080.448486 477.701996,1081.327515 481.809021,1082.789551 
	C488.262421,1085.086914 494.573761,1087.798584 501.076538,1089.935181 
	C504.153381,1090.946167 507.847839,1090.346436 510.720459,1091.660889 
	C520.384216,1096.083008 530.794617,1097.015015 541.008850,1098.880737 
	C541.940002,1099.050781 543.059204,1098.191406 544.750122,1097.749512 
	C545.173218,1097.865723 545.596375,1097.981934 546.344238,1098.676758 
	C548.442383,1101.476685 550.721680,1103.576538 554.698425,1102.093750 
	C555.817200,1101.676636 557.312622,1102.210571 558.625488,1102.382568 
	C570.329895,1103.915161 582.020630,1105.558960 593.739868,1106.966675 
	C599.164185,1107.618408 604.642273,1107.825317 610.096741,1108.223145 
	C617.881409,1108.791382 625.666626,1109.352173 633.451965,1109.911133 
	C637.363342,1110.192017 641.306213,1110.911377 645.181274,1110.647217 
	C654.385437,1110.019287 663.558716,1108.933472 672.742493,1108.013184 
	C682.442932,1107.041260 692.169922,1106.268311 701.833374,1105.009277 
	C715.771179,1103.193237 729.686157,1101.165771 743.560669,1098.918579 
	C748.764526,1098.075806 753.786865,1095.500366 758.964844,1095.255127 
	C766.514404,1094.897461 772.872742,1091.445679 779.688843,1089.161621 
	C780.598389,1088.856812 781.236267,1087.741333 782.619202,1086.899292 
	C783.033875,1086.843994 783.448486,1086.788574 784.345276,1087.340942 
	C787.753784,1086.584229 791.219910,1086.021240 794.558716,1085.029663 
	C801.132263,1083.077515 807.722290,1081.120605 814.139832,1078.722290 
	C819.222046,1076.822998 824.057007,1074.262085 829.708618,1071.907104 
	C831.803772,1070.267944 833.898926,1068.628906 836.850891,1067.001099 
	C844.800049,1066.943481 851.334839,1063.318970 857.626160,1058.933594 
	C859.883423,1057.360352 862.398010,1056.136230 864.860474,1054.880737 
	C872.037292,1051.222046 879.557495,1048.122070 886.348022,1043.855835 
	C892.020203,1040.292236 896.853088,1035.465454 904.000366,1034.730835 
	C905.376648,1034.589478 906.839661,1033.648071 907.933289,1032.696899 
	C911.893005,1029.253174 915.576172,1025.483276 919.615662,1022.141113 
	C926.196960,1016.695862 933.039673,1011.567566 939.656677,1006.164185 
	C948.377747,999.042542 957.100159,991.912476 965.545227,984.471863 
	C967.148071,983.059753 967.461487,980.184326 968.805603,978.050476 
	C968.805603,978.050476 969.157166,978.316345 969.956726,978.579956 
	C975.080872,976.019470 975.080872,976.019470 973.230957,972.968262 
	C973.697388,972.609253 974.163879,972.250244 975.404541,971.945862 
	C976.714172,971.353271 978.285828,971.046692 979.292847,970.123901 
	C989.739502,960.550598 1000.078796,950.876160 1008.062927,939.003723 
	C1009.959290,936.183960 1012.366272,933.710571 1014.496460,931.044373 
	C1020.411804,923.640747 1026.677246,916.480835 1032.113159,908.739197 
	C1038.919434,899.046082 1045.045776,888.874878 1051.449097,878.899475 
	C1055.011230,873.350220 1059.057739,868.037476 1061.982300,862.167908 
	C1069.617065,846.844971 1076.970825,831.371643 1084.008667,815.765320 
	C1088.261841,806.334106 1092.105591,796.674377 1095.416870,786.875244 
	C1098.467407,777.847961 1100.544067,768.492615 1103.080566,759.290283 
	C1105.372925,750.973145 1108.197388,742.766541 1109.900757,734.332214 
	C1112.146484,723.211914 1113.015747,711.806946 1115.401367,700.723328 
	C1118.772949,685.059021 1118.686279,669.150818 1120.171997,653.349731 
	C1121.756226,636.500488 1120.844604,619.719604 1119.713257,603.019836 
	C1118.419067,583.917175 1115.755493,564.869568 1112.848511,545.926758 
	C1110.796387,532.554504 1108.208496,519.129822 1104.213745,506.238678 
	C1101.638428,497.928497 1101.442749,488.706268 1096.008423,481.291412 
	C1095.384033,480.439453 1095.486694,479.073395 1095.182495,477.964813 
	C1093.981812,473.587036 1092.904053,469.167480 1091.491455,464.858185 
	C1090.161011,460.799500 1088.869873,456.632324 1086.789062,452.949158 
	C1085.427612,450.539337 1086.084839,446.209900 1081.167725,445.741608 
	C1080.995605,445.214508 1080.823486,444.687378 1081.290527,443.859283 
	C1081.550049,442.788818 1082.312256,441.521698 1081.983643,440.681213 
	C1080.396362,436.621948 1078.852417,432.476715 1076.635010,428.753967 
	C1074.767090,425.618164 1074.784302,420.761780 1069.246826,419.627075 
	C1046.540405,374.771179 1018.222534,333.884064 982.618164,298.274200 
	C972.303528,287.957977 961.162903,278.467621 950.276245,268.932892 
	C950.276245,268.932892 950.385803,268.601410 950.176453,267.984924 
	C948.323608,266.315094 946.533264,264.569397 944.608765,262.986633 
	C901.895142,227.858398 854.465454,200.964172 802.469055,182.232300 
	C759.465637,166.740250 715.153015,157.481140 669.442139,154.773087 
	C607.303589,151.091797 546.863586,159.595383 487.938171,179.270981 
	C459.916016,188.627762 433.013397,200.695099 407.379639,215.340973 
	C393.544098,223.245956 380.449829,232.448334 366.405426,241.199768 
	C365.777161,241.747559 365.148895,242.295349 364.034973,243.019943 
	C363.801605,243.411179 363.568207,243.802414 363.288788,244.283463 
	C363.288788,244.283463 363.198151,244.239136 362.619751,244.134277 
	C361.396118,245.039413 360.172485,245.944534 358.283966,247.043762 
	C316.367188,277.929291 280.185150,314.499939 250.277359,357.111420 
	C207.856339,417.551361 180.581955,484.210876 169.407700,557.306580 
	C165.726593,581.386292 163.516830,605.590759 164.066483,630.737610 
	C164.123337,631.494019 164.180191,632.250488 164.059204,633.928406 
	C165.081909,651.857056 165.517166,669.843140 167.262177,687.701233 
	C170.019470,715.918457 175.748535,743.641846 184.529114,770.618591 
	C189.928757,787.207947 196.224350,803.505737 201.548187,820.448547 
	C202.703003,825.453613 203.087906,830.811157 205.182755,835.385803 
	C208.851883,843.398560 213.468491,850.989502 217.886627,858.642639 
	C220.597763,863.338928 223.755524,867.775024 226.575378,872.411438 
	C231.428589,880.391174 236.004395,888.546509 241.083954,896.376831 
	C242.371750,898.362000 245.120560,899.399414 247.113937,900.936096 
	C247.113937,900.936096 247.130798,900.831970 247.052917,901.630432 
	C247.354691,902.880737 247.327530,904.358582 248.010193,905.345459 
	C253.587357,913.408020 259.114807,921.519043 265.086212,929.285583 
	C266.704193,931.389893 269.786163,932.368652 272.108032,933.936584 
	C272.108032,933.936584 272.133484,933.825317 272.063538,934.585327 
	C272.794281,936.207214 273.198334,938.109009 274.308990,939.405457 
	C281.337463,947.610229 288.295166,955.896240 295.720245,963.734802 
	C303.000092,971.420044 310.736969,978.680847 318.462433,985.926208 
	C319.592834,986.986267 321.772858,986.927246 323.528992,987.453186 
	C323.528992,987.453186 323.618866,987.468872 323.306763,988.181458 
	C323.681671,988.853760 323.920898,989.668030 324.452789,990.175964 
	C328.923035,994.445190 333.134918,999.072693 338.044556,1002.768799 
	C342.721313,1006.289490 348.143036,1008.820679 353.098358,1011.791443 
	C353.098358,1011.791443 353.215851,1011.717224 353.147614,1012.453308 
z"/>
<path fill="#374F3F" opacity="1.000000" stroke="none" 
	d="
M164.237045,633.006897 
	C164.180191,632.250488 164.123337,631.494019 164.518768,630.238159 
	C165.980484,620.644836 167.223526,611.568726 167.919662,602.450928 
	C168.407471,596.061707 167.810699,589.588440 168.321518,583.202515 
	C168.803162,577.181335 170.065521,571.219727 171.047150,565.242188 
	C172.242432,557.963318 173.279785,550.647644 174.815796,543.439514 
	C175.809280,538.777344 178.496338,534.340759 178.805405,529.695374 
	C179.499771,519.257751 181.715744,509.409485 185.518326,499.638123 
	C189.625854,489.083099 192.460434,478.037415 196.044693,467.270477 
	C196.861603,464.816528 199.196121,462.747711 199.602768,460.297607 
	C201.581787,448.374512 207.908295,438.189178 212.629135,427.425293 
	C217.050385,417.344604 222.957016,407.915344 228.210297,398.199554 
	C230.757797,393.488098 233.167770,388.695099 235.894852,384.089966 
	C238.383179,379.887970 241.186661,375.870422 243.904190,371.806976 
	C246.696899,367.631134 249.394684,363.377808 252.422577,359.376770 
	C256.253510,354.314545 260.341919,349.444794 264.387054,344.548035 
	C266.393463,342.119232 269.474792,340.147705 270.465607,337.392426 
	C273.295593,329.522858 279.035156,324.252106 284.919769,318.931641 
	C286.869904,317.168488 288.852905,315.346863 290.388275,313.237152 
	C295.451630,306.279846 300.164978,299.059662 308.269562,295.065613 
	C309.536774,294.441162 310.573273,293.109436 311.411163,291.894287 
	C315.075653,286.580078 318.966156,281.577240 324.851257,278.436279 
	C330.048035,275.662628 335.151428,272.702759 337.436493,266.698547 
	C337.750824,265.872589 338.797943,265.263733 339.606079,264.697418 
	C344.767487,261.080414 350.096558,257.682831 355.062164,253.817017 
	C356.820648,252.448044 357.715668,249.969925 359.387573,247.990631 
	C361.709076,247.464096 364.507446,247.732056 363.198151,244.239136 
	C363.198151,244.239136 363.288788,244.283463 363.724670,244.480682 
	C365.849792,244.272186 367.802277,244.278778 369.186523,243.395187 
	C379.811646,236.613022 390.296509,229.611557 400.890656,222.780151 
	C404.892883,220.199402 408.902252,217.530075 413.201508,215.531723 
	C420.733978,212.030487 428.588928,209.224152 436.129333,205.738495 
	C443.525665,202.319427 450.705536,198.430527 457.965424,194.718552 
	C460.263580,193.543488 462.399475,191.943970 464.807648,191.111801 
	C471.261658,188.881607 477.849121,187.040268 484.327087,184.875443 
	C486.571259,184.125504 488.570465,182.638809 490.816833,181.900024 
	C500.647034,178.667130 510.489410,175.460098 520.402832,172.496124 
	C526.213562,170.758804 532.274719,167.965042 538.029968,168.372940 
	C547.024719,169.010452 554.902588,165.967484 563.228821,164.153519 
	C569.660522,162.752335 576.212585,161.779694 582.760376,161.073074 
	C588.351990,160.469635 594.053040,160.852448 599.635803,160.200699 
	C609.587952,159.038788 619.445374,156.869781 629.417603,156.115707 
	C650.478210,154.523163 671.317749,157.741394 692.177917,160.063431 
	C696.765625,160.574097 701.369812,160.985992 705.929626,161.683609 
	C709.802429,162.276093 713.595520,163.403641 717.472351,163.951385 
	C722.052490,164.598495 726.732605,164.600174 731.281799,165.387451 
	C736.608459,166.309235 741.839783,167.780273 747.114258,169.005310 
	C753.702393,170.535431 760.378235,171.765244 766.856384,173.668747 
	C772.865601,175.434464 778.591919,178.149063 784.577393,180.013748 
	C790.028381,181.711914 795.880798,182.265915 801.162231,184.331665 
	C809.703003,187.672226 817.896973,191.891861 826.281982,195.640625 
	C834.346802,199.246185 842.462158,202.738922 850.567383,206.253510 
	C854.042603,207.760437 857.711304,208.903152 861.004700,210.729645 
	C867.070190,214.093567 872.899780,217.880020 878.870239,221.418671 
	C887.738098,226.674545 896.640747,231.871719 905.532593,237.087112 
	C914.806213,242.526505 921.054443,252.085007 931.421997,256.080658 
	C932.554810,256.517212 933.181763,258.127777 934.280273,258.815430 
	C939.604370,262.148285 945.009460,265.351929 950.385803,268.601410 
	C950.385803,268.601410 950.276245,268.932892 950.239990,269.149902 
	C950.814148,270.695282 951.120422,272.327515 952.089478,273.297302 
	C955.575378,276.785461 959.285950,280.048920 962.909668,283.399353 
	C971.479675,291.323029 980.525269,298.801849 988.479736,307.301636 
	C995.958557,315.293243 1002.339417,324.320740 1009.099243,332.973816 
	C1013.357849,338.425079 1017.404175,344.041687 1021.583374,349.555634 
	C1026.133179,355.558563 1030.817261,361.462494 1035.245483,367.553223 
	C1036.566650,369.370453 1036.817749,372.019073 1038.253296,373.690826 
	C1045.679810,382.339722 1050.748657,392.446045 1056.529297,402.136292 
	C1064.639160,415.731171 1071.227051,430.006042 1077.109619,444.670105 
	C1080.592773,453.352936 1081.829956,463.118103 1088.972412,470.134491 
	C1089.606445,470.757416 1089.732300,471.949341 1089.979980,472.906494 
	C1093.588989,486.854492 1097.216064,500.797974 1100.761108,514.762329 
	C1103.797729,526.723511 1106.912231,538.669739 1109.642700,550.701965 
	C1111.053345,556.918335 1112.015747,563.277405 1112.621338,569.625427 
	C1113.449219,578.302917 1113.915161,587.025391 1114.211182,595.739685 
	C1114.427246,602.096375 1113.854126,608.482361 1114.129761,614.833740 
	C1114.343872,619.770020 1115.850708,624.672180 1115.858154,629.590942 
	C1115.875000,640.711670 1115.447998,651.839417 1114.919678,662.950928 
	C1114.760132,666.306152 1113.377319,669.593933 1113.112549,672.956543 
	C1112.922119,675.375366 1114.248535,677.960083 1113.878662,680.310364 
	C1112.156860,691.252075 1110.120850,702.145386 1108.112305,713.040405 
	C1107.176636,718.116150 1106.139282,723.177185 1104.988037,728.208252 
	C1102.812622,737.715149 1100.664551,747.232605 1098.224731,756.673096 
	C1096.763306,762.326904 1094.687500,767.818787 1093.036987,773.427368 
	C1090.895020,780.705200 1089.406494,788.220581 1086.699707,795.274109 
	C1084.085205,802.086975 1080.045776,808.339050 1077.083008,815.036926 
	C1075.162476,819.378723 1074.035889,824.073608 1072.581787,828.619202 
	C1071.455688,832.139038 1070.373169,835.672729 1069.262451,839.180054 
	C1069.253662,839.159729 1069.264404,839.180298 1068.905518,839.170593 
	C1064.061890,841.810364 1062.814819,846.509705 1060.537231,850.778320 
	C1054.677490,861.760437 1048.201294,872.436523 1041.529663,882.954773 
	C1036.784668,890.435730 1031.324463,897.463196 1026.179443,904.690186 
	C1021.120667,911.796204 1016.056763,918.898621 1010.680481,926.051392 
	C1009.912231,926.732605 1009.458618,927.365112 1008.976318,928.292725 
	C1008.631042,929.060303 1008.314331,929.532654 1007.659302,930.066406 
	C1006.881470,931.083618 1006.441956,932.039490 1005.839233,933.295776 
	C1001.782043,938.064941 997.888000,942.533691 993.627441,947.012207 
	C992.507263,948.011414 991.753662,949.000854 990.717468,950.286255 
	C990.616516,951.636475 990.798096,952.690857 990.910278,953.795349 
	C990.840820,953.845520 990.724976,953.971741 990.392334,953.706299 
	C989.033325,953.957581 988.007019,954.474365 986.616943,955.003967 
	C984.554077,956.648376 982.870422,958.296326 981.153137,959.908447 
	C976.288147,964.475464 971.366455,968.982971 966.547119,973.597473 
	C960.703186,979.192871 955.096558,985.046082 949.091003,990.459045 
	C944.813232,994.314514 939.317749,997.009277 935.661194,1001.320740 
	C929.506104,1008.578125 921.047974,1012.384705 913.795776,1017.951172 
	C909.680786,1021.109619 903.704773,1022.534729 902.841187,1029.282715 
	C902.142029,1029.751831 901.611511,1029.980957 901.015503,1029.867188 
	C897.970642,1029.931274 894.144531,1029.304321 892.161926,1030.928223 
	C884.518860,1037.188599 876.445557,1042.393066 867.308716,1046.292236 
	C857.439514,1050.504028 849.806030,1059.667358 837.942810,1059.582397 
	C837.498413,1059.579346 837.054443,1060.011841 836.604553,1060.229370 
	C828.389404,1064.200317 820.222656,1068.277222 811.926147,1072.070312 
	C809.561218,1073.151611 808.914001,1074.339233 809.688721,1076.734253 
	C808.600647,1077.099365 807.802490,1077.319580 806.979309,1077.399292 
	C806.954346,1077.258789 806.899353,1076.978882 806.831421,1076.823730 
	C806.509949,1076.774048 806.256348,1076.879272 805.588379,1077.000488 
	C798.180054,1078.804321 791.151611,1080.468750 784.199646,1082.406982 
	C771.871887,1085.843750 759.697327,1089.897583 747.257568,1092.843872 
	C736.534058,1095.383911 725.518005,1096.673462 714.656128,1098.652344 
	C709.632202,1099.567749 704.714661,1101.310425 699.664978,1101.784424 
	C691.874268,1102.515747 684.005127,1102.364380 676.180725,1102.796021 
	C664.599609,1103.434937 653.013611,1105.042236 641.456360,1104.824463 
	C621.739685,1104.453125 602.039612,1103.056152 582.342468,1101.917480 
	C578.430237,1101.691162 574.526306,1100.856567 570.682068,1100.012939 
	C561.972168,1098.101318 553.298340,1096.024170 544.616394,1093.986694 
	C532.945679,1091.247925 521.137817,1088.967285 509.660767,1085.570923 
	C500.990265,1083.005127 491.925201,1081.715332 483.749939,1077.170898 
	C479.301025,1074.697876 473.571320,1074.643921 468.810486,1072.591553 
	C460.666809,1069.080811 452.828766,1064.860718 444.867065,1060.928955 
	C443.842865,1060.423218 442.897797,1059.707397 441.828613,1059.351685 
	C438.238953,1058.157593 434.355591,1057.575073 431.044128,1055.867554 
	C421.830475,1051.116333 412.754211,1046.077515 403.800720,1040.848999 
	C394.928528,1035.667969 386.214752,1030.207275 377.550446,1024.682739 
	C374.252747,1022.580139 371.385132,1019.812988 368.145599,1017.606995 
	C363.151154,1014.206055 357.752930,1011.354492 352.985870,1007.674194 
	C346.654114,1002.785889 340.738708,997.354614 334.699280,992.093567 
	C332.655701,990.313416 330.816956,988.300293 328.819031,986.465088 
	C322.681915,980.827942 316.412628,975.330261 310.391998,969.572205 
	C306.437531,965.789978 303.150513,961.265015 298.991760,957.750488 
	C289.624115,949.833984 282.071503,940.387878 274.803467,930.648743 
	C272.726288,927.865234 270.878906,924.895203 268.648224,922.244629 
	C264.942383,917.841125 260.627899,913.905823 257.259247,909.272095 
	C251.088547,900.784058 245.299927,892.008850 239.586319,883.201355 
	C235.968689,877.624634 232.678345,871.827271 229.414642,866.031250 
	C224.746201,857.740662 219.833252,849.551453 215.770599,840.966064 
	C211.593719,832.139221 205.111771,824.197876 204.650589,813.784241 
	C204.592896,812.481323 203.157639,811.268188 202.463791,809.958801 
	C200.877075,806.964600 199.180878,804.010925 197.847900,800.904053 
	C196.041382,796.693298 194.471603,792.376648 192.922623,788.061523 
	C192.134857,785.867249 191.552704,783.592285 190.986343,781.326660 
	C189.705246,776.202026 188.789139,770.964905 187.177017,765.949585 
	C185.057770,759.356445 181.847702,753.075989 180.150833,746.395813 
	C178.430832,739.624573 178.014938,732.525452 176.965912,725.579285 
	C176.274094,720.998474 176.621292,715.772339 174.455917,712.014954 
	C171.062866,706.127319 171.137390,700.159241 170.988663,693.959778 
	C170.941025,691.973450 170.939102,689.966003 170.642746,688.009644 
	C169.851044,682.782898 168.509155,677.609253 168.109970,672.359375 
	C167.154907,659.798035 166.636505,647.203735 165.842041,634.629028 
	C165.805893,634.056824 164.794312,633.546204 164.237045,633.006897 
M560.313721,414.082397 
	C557.510803,416.802246 553.588745,419.022491 552.110718,422.333740 
	C547.295227,433.121521 543.291260,444.277283 539.142334,455.354156 
	C537.220581,460.484924 535.685669,465.760590 533.041687,470.975037 
	C524.580139,470.662781 516.119019,470.120270 507.657043,470.107300 
	C500.196381,470.095886 492.736633,470.736603 485.272614,470.959930 
	C482.832520,471.032928 480.290710,470.214447 477.951080,470.646545 
	C471.934845,471.757660 468.790497,476.406403 468.031097,484.455109 
	C466.368317,502.078430 464.555145,519.689331 463.093262,537.329285 
	C461.847626,552.359924 461.080109,567.429443 459.957123,582.471069 
	C459.389954,590.067261 458.515594,597.640869 457.759613,605.222656 
	C456.183350,621.030640 454.510468,636.829590 453.035309,652.646973 
	C451.850830,665.347229 450.943878,678.073181 449.832275,690.780579 
	C448.605927,704.799194 447.337952,718.814636 445.992462,732.822266 
	C444.805695,745.177856 443.384277,757.511414 442.266998,769.872864 
	C441.640106,776.808533 441.061890,783.783386 441.108032,790.736267 
	C441.164795,799.299316 447.382935,805.002930 455.860046,805.003052 
	C577.672791,805.004822 699.485474,805.004395 821.298218,805.003052 
	C822.964539,805.002991 824.638000,805.082275 826.295898,804.959412 
	C835.341309,804.289490 839.783752,801.279846 840.637878,794.078552 
	C841.278992,788.672852 841.065613,783.096680 840.624695,777.645569 
	C839.610718,765.109131 838.115967,752.612183 837.025940,740.080933 
	C836.126831,729.744019 835.684631,719.366943 834.756531,709.033142 
	C833.661133,696.836365 832.194885,684.673523 831.011414,672.484070 
	C829.875183,660.779602 828.855896,649.063293 827.855774,637.346130 
	C826.532166,621.838501 825.311157,606.322083 823.978699,590.815247 
	C823.284119,582.730774 822.426392,574.660461 821.679016,566.580383 
	C821.267334,562.129517 821.020386,557.662109 820.544434,553.218750 
	C819.416138,542.687256 817.923889,532.187317 817.082825,521.634460 
	C816.094727,509.237213 815.726318,496.791809 814.917969,484.378479 
	C814.496277,477.903870 807.241638,470.038269 802.187378,470.191589 
	C793.390015,470.458496 784.594177,470.837036 775.794800,470.962067 
	C766.541931,471.093567 757.285522,470.982605 747.997620,470.232574 
	C746.969299,464.023376 746.080566,457.785950 744.833923,451.620880 
	C744.420288,449.574982 743.083069,447.716766 742.175415,445.769409 
	C741.430115,444.170471 740.714966,442.557220 739.952454,440.966644 
	C737.650513,436.164978 735.431946,431.319458 732.983154,426.593475 
	C731.469971,423.673218 729.919617,420.662659 727.802307,418.193054 
	C725.211243,415.170990 722.009583,412.672394 718.588623,409.373657 
	C715.417664,398.334656 709.912170,388.600281 702.286072,380.028748 
	C681.784668,356.985901 656.144348,347.370544 625.950012,353.243805 
	C594.600098,359.341827 574.533813,379.209259 563.440979,409.422394 
	C562.626526,410.942963 561.812012,412.463562 560.313721,414.082397 
M584.500000,868.793213 
	C557.848206,868.785767 531.195740,868.667053 504.544830,868.818176 
	C491.363770,868.892883 483.742035,882.276794 490.284302,893.652100 
	C493.738373,899.657837 499.210388,902.100525 506.159943,902.094421 
	C563.461060,902.044189 620.762207,902.126099 678.063354,902.127808 
	C711.211365,902.128784 744.359558,902.114136 777.507141,901.978088 
	C786.845520,901.939758 793.748657,894.765320 793.922974,885.451843 
	C794.100403,875.978943 787.591858,869.161011 777.890015,868.696655 
	C776.061218,868.609070 774.226257,868.634399 772.394104,868.635925 
	C710.096069,868.687195 647.798035,868.741943 584.500000,868.793213 
z"/>
<path fill="#404C35" opacity="1.000000" stroke="none" 
	d="
M806.899353,1076.978882 
	C806.899353,1076.978882 806.954346,1077.258789 806.657349,1077.606934 
	C805.620850,1078.275757 804.891541,1078.622559 804.140442,1078.912964 
	C797.383484,1081.525269 790.622803,1084.127930 783.863159,1086.733276 
	C783.448486,1086.788574 783.033875,1086.843994 781.911255,1086.867310 
	C755.142822,1093.821777 728.994751,1100.306030 702.123474,1103.555664 
	C671.932373,1107.206665 641.641479,1108.823975 611.357117,1106.337891 
	C589.499695,1104.543579 567.793274,1100.910767 546.019470,1098.098022 
	C545.596375,1097.981934 545.173218,1097.865723 544.105652,1097.573730 
	C531.847534,1094.525635 519.945068,1092.491211 508.680176,1088.607300 
	C484.985840,1080.437866 461.626099,1071.298218 438.128967,1062.556885 
	C437.633179,1062.313354 437.137390,1062.069946 436.125061,1061.576904 
	C420.326324,1052.905029 404.958191,1044.633545 389.797241,1035.998291 
	C381.877625,1031.487549 374.322418,1026.337158 366.602631,1021.475525 
	C366.602631,1021.475525 366.515228,1021.467041 366.371124,1021.150635 
	C361.889954,1017.795166 357.552887,1014.756226 353.215820,1011.717285 
	C353.215851,1011.717224 353.098358,1011.791443 353.022522,1011.487061 
	C343.170715,1003.278076 333.394775,995.373474 323.618866,987.468872 
	C323.618866,987.468872 323.528992,987.453186 323.410522,987.126709 
	C316.602234,980.346191 309.691986,974.102905 303.272430,967.390442 
	C292.725403,956.362183 282.496521,945.029541 272.133484,933.825317 
	C272.133484,933.825317 272.108032,933.936584 272.055420,933.575439 
	C263.712158,922.420166 255.421463,911.626099 247.130798,900.831970 
	C247.130798,900.831970 247.113937,900.936096 247.078705,900.566345 
	C238.057846,885.462952 228.693634,870.943298 220.208282,855.926941 
	C213.610123,844.250366 208.107285,831.954895 202.117645,819.934448 
	C196.224350,803.505737 189.928757,787.207947 184.529114,770.618591 
	C175.748535,743.641846 170.019470,715.918457 167.262177,687.701233 
	C165.517166,669.843140 165.081909,651.857056 164.148132,633.467651 
	C164.794312,633.546204 165.805893,634.056824 165.842041,634.629028 
	C166.636505,647.203735 167.154907,659.798035 168.109970,672.359375 
	C168.509155,677.609253 169.851044,682.782898 170.642746,688.009644 
	C170.939102,689.966003 170.941025,691.973450 170.988663,693.959778 
	C171.137390,700.159241 171.062866,706.127319 174.455917,712.014954 
	C176.621292,715.772339 176.274094,720.998474 176.965912,725.579285 
	C178.014938,732.525452 178.430832,739.624573 180.150833,746.395813 
	C181.847702,753.075989 185.057770,759.356445 187.177017,765.949585 
	C188.789139,770.964905 189.705246,776.202026 190.986343,781.326660 
	C191.552704,783.592285 192.134857,785.867249 192.922623,788.061523 
	C194.471603,792.376648 196.041382,796.693298 197.847900,800.904053 
	C199.180878,804.010925 200.877075,806.964600 202.463791,809.958801 
	C203.157639,811.268188 204.592896,812.481323 204.650589,813.784241 
	C205.111771,824.197876 211.593719,832.139221 215.770599,840.966064 
	C219.833252,849.551453 224.746201,857.740662 229.414642,866.031250 
	C232.678345,871.827271 235.968689,877.624634 239.586319,883.201355 
	C245.299927,892.008850 251.088547,900.784058 257.259247,909.272095 
	C260.627899,913.905823 264.942383,917.841125 268.648224,922.244629 
	C270.878906,924.895203 272.726288,927.865234 274.803467,930.648743 
	C282.071503,940.387878 289.624115,949.833984 298.991760,957.750488 
	C303.150513,961.265015 306.437531,965.789978 310.391998,969.572205 
	C316.412628,975.330261 322.681915,980.827942 328.819031,986.465088 
	C330.816956,988.300293 332.655701,990.313416 334.699280,992.093567 
	C340.738708,997.354614 346.654114,1002.785889 352.985870,1007.674194 
	C357.752930,1011.354492 363.151154,1014.206055 368.145599,1017.606995 
	C371.385132,1019.812988 374.252747,1022.580139 377.550446,1024.682739 
	C386.214752,1030.207275 394.928528,1035.667969 403.800720,1040.848999 
	C412.754211,1046.077515 421.830475,1051.116333 431.044128,1055.867554 
	C434.355591,1057.575073 438.238953,1058.157593 441.828613,1059.351685 
	C442.897797,1059.707397 443.842865,1060.423218 444.867065,1060.928955 
	C452.828766,1064.860718 460.666809,1069.080811 468.810486,1072.591553 
	C473.571320,1074.643921 479.301025,1074.697876 483.749939,1077.170898 
	C491.925201,1081.715332 500.990265,1083.005127 509.660767,1085.570923 
	C521.137817,1088.967285 532.945679,1091.247925 544.616394,1093.986694 
	C553.298340,1096.024170 561.972168,1098.101318 570.682068,1100.012939 
	C574.526306,1100.856567 578.430237,1101.691162 582.342468,1101.917480 
	C602.039612,1103.056152 621.739685,1104.453125 641.456360,1104.824463 
	C653.013611,1105.042236 664.599609,1103.434937 676.180725,1102.796021 
	C684.005127,1102.364380 691.874268,1102.515747 699.664978,1101.784424 
	C704.714661,1101.310425 709.632202,1099.567749 714.656128,1098.652344 
	C725.518005,1096.673462 736.534058,1095.383911 747.257568,1092.843872 
	C759.697327,1089.897583 771.871887,1085.843750 784.199646,1082.406982 
	C791.151611,1080.468750 798.180054,1078.804321 805.812500,1077.001831 
	C806.450989,1076.987183 806.899353,1076.978882 806.899353,1076.978882 
z"/>
<path fill="#3B4732" opacity="1.000000" stroke="none" 
	d="
M950.281128,268.293152 
	C945.009460,265.351929 939.604370,262.148285 934.280273,258.815430 
	C933.181763,258.127777 932.554810,256.517212 931.421997,256.080658 
	C921.054443,252.085007 914.806213,242.526505 905.532593,237.087112 
	C896.640747,231.871719 887.738098,226.674545 878.870239,221.418671 
	C872.899780,217.880020 867.070190,214.093567 861.004700,210.729645 
	C857.711304,208.903152 854.042603,207.760437 850.567383,206.253510 
	C842.462158,202.738922 834.346802,199.246185 826.281982,195.640625 
	C817.896973,191.891861 809.703003,187.672226 801.162231,184.331665 
	C795.880798,182.265915 790.028381,181.711914 784.577393,180.013748 
	C778.591919,178.149063 772.865601,175.434464 766.856384,173.668747 
	C760.378235,171.765244 753.702393,170.535431 747.114258,169.005310 
	C741.839783,167.780273 736.608459,166.309235 731.281799,165.387451 
	C726.732605,164.600174 722.052490,164.598495 717.472351,163.951385 
	C713.595520,163.403641 709.802429,162.276093 705.929626,161.683609 
	C701.369812,160.985992 696.765625,160.574097 692.177917,160.063431 
	C671.317749,157.741394 650.478210,154.523163 629.417603,156.115707 
	C619.445374,156.869781 609.587952,159.038788 599.635803,160.200699 
	C594.053040,160.852448 588.351990,160.469635 582.760376,161.073074 
	C576.212585,161.779694 569.660522,162.752335 563.228821,164.153519 
	C554.902588,165.967484 547.024719,169.010452 538.029968,168.372940 
	C532.274719,167.965042 526.213562,170.758804 520.402832,172.496124 
	C510.489410,175.460098 500.647034,178.667130 490.816833,181.900024 
	C488.570465,182.638809 486.571259,184.125504 484.327087,184.875443 
	C477.849121,187.040268 471.261658,188.881607 464.807648,191.111801 
	C462.399475,191.943970 460.263580,193.543488 457.965424,194.718552 
	C450.705536,198.430527 443.525665,202.319427 436.129333,205.738495 
	C428.588928,209.224152 420.733978,212.030487 413.201508,215.531723 
	C408.902252,217.530075 404.892883,220.199402 400.890656,222.780151 
	C390.296509,229.611557 379.811646,236.613022 369.186523,243.395187 
	C367.802277,244.278778 365.849792,244.272186 363.747681,244.435760 
	C363.568207,243.802414 363.801605,243.411179 364.636169,242.944061 
	C365.831909,242.267242 366.426514,241.666306 367.021118,241.065369 
	C380.449829,232.448334 393.544098,223.245956 407.379639,215.340973 
	C433.013397,200.695099 459.916016,188.627762 487.938171,179.270981 
	C546.863586,159.595383 607.303589,151.091797 669.442139,154.773087 
	C715.153015,157.481140 759.465637,166.740250 802.469055,182.232300 
	C854.465454,200.964172 901.895142,227.858398 944.608765,262.986633 
	C946.533264,264.569397 948.323608,266.315094 950.281128,268.293152 
z"/>
<path fill="#3B4732" opacity="1.000000" stroke="none" 
	d="
M1069.271362,839.200317 
	C1070.373169,835.672729 1071.455688,832.139038 1072.581787,828.619202 
	C1074.035889,824.073608 1075.162476,819.378723 1077.083008,815.036926 
	C1080.045776,808.339050 1084.085205,802.086975 1086.699707,795.274109 
	C1089.406494,788.220581 1090.895020,780.705200 1093.036987,773.427368 
	C1094.687500,767.818787 1096.763306,762.326904 1098.224731,756.673096 
	C1100.664551,747.232605 1102.812622,737.715149 1104.988037,728.208252 
	C1106.139282,723.177185 1107.176636,718.116150 1108.112305,713.040405 
	C1110.120850,702.145386 1112.156860,691.252075 1113.878662,680.310364 
	C1114.248535,677.960083 1112.922119,675.375366 1113.112549,672.956543 
	C1113.377319,669.593933 1114.760132,666.306152 1114.919678,662.950928 
	C1115.447998,651.839417 1115.875000,640.711670 1115.858154,629.590942 
	C1115.850708,624.672180 1114.343872,619.770020 1114.129761,614.833740 
	C1113.854126,608.482361 1114.427246,602.096375 1114.211182,595.739685 
	C1113.915161,587.025391 1113.449219,578.302917 1112.621338,569.625427 
	C1112.015747,563.277405 1111.053345,556.918335 1109.642700,550.701965 
	C1106.912231,538.669739 1103.797729,526.723511 1100.761108,514.762329 
	C1097.216064,500.797974 1093.588989,486.854492 1089.979980,472.906494 
	C1089.732300,471.949341 1089.606445,470.757416 1088.972412,470.134491 
	C1081.829956,463.118103 1080.592773,453.352936 1077.109619,444.670105 
	C1071.227051,430.006042 1064.639160,415.731171 1056.529297,402.136292 
	C1050.748657,392.446045 1045.679810,382.339722 1038.253296,373.690826 
	C1036.817749,372.019073 1036.566650,369.370453 1035.245483,367.553223 
	C1030.817261,361.462494 1026.133179,355.558563 1021.583374,349.555634 
	C1017.404175,344.041687 1013.357849,338.425079 1009.099243,332.973816 
	C1002.339417,324.320740 995.958557,315.293243 988.479736,307.301636 
	C980.525269,298.801849 971.479675,291.323029 962.909668,283.399353 
	C959.285950,280.048920 955.575378,276.785461 952.089478,273.297302 
	C951.120422,272.327515 950.814148,270.695282 950.302368,268.982819 
	C961.162903,278.467621 972.303528,287.957977 982.618164,298.274200 
	C1018.222534,333.884064 1046.540405,374.771179 1069.555908,420.217285 
	C1073.460327,428.591736 1077.055786,436.376007 1080.651367,444.160248 
	C1080.823486,444.687378 1080.995605,445.214508 1081.447144,446.307007 
	C1082.064453,447.810394 1082.364136,448.764221 1082.745728,449.684052 
	C1101.648682,495.247528 1112.831421,542.689392 1116.822266,591.800110 
	C1121.007690,643.305725 1116.847412,694.207886 1104.771729,744.455688 
	C1097.120483,776.292053 1086.035278,806.898926 1071.720703,836.337036 
	C1071.189209,837.429993 1070.100464,838.252075 1069.271362,839.200317 
z"/>
<path fill="#404C35" opacity="1.000000" stroke="none" 
	d="
M359.004883,247.998169 
	C357.715668,249.969925 356.820648,252.448044 355.062164,253.817017 
	C350.096558,257.682831 344.767487,261.080414 339.606079,264.697418 
	C338.797943,265.263733 337.750824,265.872589 337.436493,266.698547 
	C335.151428,272.702759 330.048035,275.662628 324.851257,278.436279 
	C318.966156,281.577240 315.075653,286.580078 311.411163,291.894287 
	C310.573273,293.109436 309.536774,294.441162 308.269562,295.065613 
	C300.164978,299.059662 295.451630,306.279846 290.388275,313.237152 
	C288.852905,315.346863 286.869904,317.168488 284.919769,318.931641 
	C279.035156,324.252106 273.295593,329.522858 270.465607,337.392426 
	C269.474792,340.147705 266.393463,342.119232 264.387054,344.548035 
	C260.341919,349.444794 256.253510,354.314545 252.422577,359.376770 
	C249.394684,363.377808 246.696899,367.631134 243.904190,371.806976 
	C241.186661,375.870422 238.383179,379.887970 235.894852,384.089966 
	C233.167770,388.695099 230.757797,393.488098 228.210297,398.199554 
	C222.957016,407.915344 217.050385,417.344604 212.629135,427.425293 
	C207.908295,438.189178 201.581787,448.374512 199.602768,460.297607 
	C199.196121,462.747711 196.861603,464.816528 196.044693,467.270477 
	C192.460434,478.037415 189.625854,489.083099 185.518326,499.638123 
	C181.715744,509.409485 179.499771,519.257751 178.805405,529.695374 
	C178.496338,534.340759 175.809280,538.777344 174.815796,543.439514 
	C173.279785,550.647644 172.242432,557.963318 171.047150,565.242188 
	C170.065521,571.219727 168.803162,577.181335 168.321518,583.202515 
	C167.810699,589.588440 168.407471,596.061707 167.919662,602.450928 
	C167.223526,611.568726 165.980484,620.644836 164.603699,629.866089 
	C163.516830,605.590759 165.726593,581.386292 169.407700,557.306580 
	C180.581955,484.210876 207.856339,417.551361 250.277359,357.111420 
	C280.185150,314.499939 316.367188,277.929291 358.634186,247.233704 
	C358.991211,247.615158 358.998047,247.806656 359.004883,247.998169 
z"/>
<path fill="#D4CDB1" opacity="1.000000" stroke="none" 
	d="
M1069.262451,839.180054 
	C1070.100464,838.252075 1071.189209,837.429993 1071.720703,836.337036 
	C1086.035278,806.898926 1097.120483,776.292053 1104.771729,744.455688 
	C1116.847412,694.207886 1121.007690,643.305725 1116.822266,591.800110 
	C1112.831421,542.689392 1101.648682,495.247528 1082.745728,449.684052 
	C1082.364136,448.764221 1082.064453,447.810394 1081.651245,446.499420 
	C1086.084839,446.209900 1085.427612,450.539337 1086.789062,452.949158 
	C1088.869873,456.632324 1090.161011,460.799500 1091.491455,464.858185 
	C1092.904053,469.167480 1093.981812,473.587036 1095.182495,477.964813 
	C1095.486694,479.073395 1095.384033,480.439453 1096.008423,481.291412 
	C1101.442749,488.706268 1101.638428,497.928497 1104.213745,506.238678 
	C1108.208496,519.129822 1110.796387,532.554504 1112.848511,545.926758 
	C1115.755493,564.869568 1118.419067,583.917175 1119.713257,603.019836 
	C1120.844604,619.719604 1121.756226,636.500488 1120.171997,653.349731 
	C1118.686279,669.150818 1118.772949,685.059021 1115.401367,700.723328 
	C1113.015747,711.806946 1112.146484,723.211914 1109.900757,734.332214 
	C1108.197388,742.766541 1105.372925,750.973145 1103.080566,759.290283 
	C1100.544067,768.492615 1098.467407,777.847961 1095.416870,786.875244 
	C1092.105591,796.674377 1088.261841,806.334106 1084.008667,815.765320 
	C1076.970825,831.371643 1069.617065,846.844971 1061.982300,862.167908 
	C1059.057739,868.037476 1055.011230,873.350220 1051.449097,878.899475 
	C1045.045776,888.874878 1038.919434,899.046082 1032.113159,908.739197 
	C1026.677246,916.480835 1020.411804,923.640747 1014.496460,931.044373 
	C1012.366272,933.710571 1009.959290,936.183960 1008.062927,939.003723 
	C1000.078796,950.876160 989.739502,960.550598 979.292847,970.123901 
	C978.285828,971.046692 976.714172,971.353271 975.185242,971.614868 
	C979.567505,966.506287 984.169128,961.728760 989.052795,956.780518 
	C989.798218,955.730469 990.261597,954.851074 990.724976,953.971741 
	C990.724976,953.971741 990.840820,953.845520 991.198242,953.796326 
	C1001.110535,942.581970 1011.048279,931.718689 1020.137939,920.186890 
	C1037.475708,898.190979 1052.216309,874.491272 1064.554199,849.325623 
	C1066.195068,845.978577 1067.697754,842.563721 1069.264404,839.180298 
	C1069.264404,839.180298 1069.253662,839.159729 1069.262451,839.180054 
z"/>
<path fill="#D5CDB0" opacity="1.000000" stroke="none" 
	d="
M546.181885,1098.387451 
	C567.793274,1100.910767 589.499695,1104.543579 611.357117,1106.337891 
	C641.641479,1108.823975 671.932373,1107.206665 702.123474,1103.555664 
	C728.994751,1100.306030 755.142822,1093.821777 781.601685,1086.918335 
	C781.236267,1087.741333 780.598389,1088.856812 779.688843,1089.161621 
	C772.872742,1091.445679 766.514404,1094.897461 758.964844,1095.255127 
	C753.786865,1095.500366 748.764526,1098.075806 743.560669,1098.918579 
	C729.686157,1101.165771 715.771179,1103.193237 701.833374,1105.009277 
	C692.169922,1106.268311 682.442932,1107.041260 672.742493,1108.013184 
	C663.558716,1108.933472 654.385437,1110.019287 645.181274,1110.647217 
	C641.306213,1110.911377 637.363342,1110.192017 633.451965,1109.911133 
	C625.666626,1109.352173 617.881409,1108.791382 610.096741,1108.223145 
	C604.642273,1107.825317 599.164185,1107.618408 593.739868,1106.966675 
	C582.020630,1105.558960 570.329895,1103.915161 558.625488,1102.382568 
	C557.312622,1102.210571 555.817200,1101.676636 554.698425,1102.093750 
	C550.721680,1103.576538 548.442383,1101.476685 546.181885,1098.387451 
z"/>
<path fill="#D7CEB1" opacity="1.000000" stroke="none" 
	d="
M901.081055,1030.209961 
	C901.611511,1029.980957 902.142029,1029.751831 903.175537,1029.199463 
	C906.914734,1026.595581 910.251587,1024.444214 913.369507,1022.012207 
	C927.477112,1011.008362 941.554871,999.965637 955.571777,988.846619 
	C959.953125,985.371094 964.110168,981.612854 968.369873,977.984070 
	C967.461487,980.184326 967.148071,983.059753 965.545227,984.471863 
	C957.100159,991.912476 948.377747,999.042542 939.656677,1006.164185 
	C933.039673,1011.567566 926.196960,1016.695862 919.615662,1022.141113 
	C915.576172,1025.483276 911.893005,1029.253174 907.933289,1032.696899 
	C906.839661,1033.648071 905.376648,1034.589478 904.000366,1034.730835 
	C896.853088,1035.465454 892.020203,1040.292236 886.348022,1043.855835 
	C879.557495,1048.122070 872.037292,1051.222046 864.860474,1054.880737 
	C862.398010,1056.136230 859.883423,1057.360352 857.626160,1058.933594 
	C851.334839,1063.318970 844.800049,1066.943481 836.373535,1066.940308 
	C835.896240,1066.879517 835.798462,1066.768921 835.973083,1066.467041 
	C840.775146,1063.900269 845.527466,1061.856812 850.007996,1059.331299 
	C867.079895,1049.708496 884.064087,1039.930176 901.081055,1030.209961 
z"/>
<path fill="#3D4934" opacity="1.000000" stroke="none" 
	d="
M968.587769,978.017273 
	C964.110168,981.612854 959.953125,985.371094 955.571777,988.846619 
	C941.554871,999.965637 927.477112,1011.008362 913.369507,1022.012207 
	C910.251587,1024.444214 906.914734,1026.595581 903.344238,1028.959351 
	C903.704773,1022.534729 909.680786,1021.109619 913.795776,1017.951172 
	C921.047974,1012.384705 929.506104,1008.578125 935.661194,1001.320740 
	C939.317749,997.009277 944.813232,994.314514 949.091003,990.459045 
	C955.096558,985.046082 960.703186,979.192871 966.547119,973.597473 
	C971.366455,968.982971 976.288147,964.475464 981.153137,959.908447 
	C982.870422,958.296326 984.554077,956.648376 986.660522,955.301331 
	C987.635498,956.040955 988.203064,956.496094 988.770752,956.951233 
	C984.169128,961.728760 979.567505,966.506287 974.798157,971.587524 
	C974.163879,972.250244 973.697388,972.609253 972.822449,973.383911 
	C971.328308,975.305176 970.242737,976.810730 969.157104,978.316284 
	C969.157166,978.316345 968.805603,978.050476 968.587769,978.017273 
z"/>
<path fill="#D5CDB0" opacity="1.000000" stroke="none" 
	d="
M438.096069,1062.974976 
	C461.626099,1071.298218 484.985840,1080.437866 508.680176,1088.607300 
	C519.945068,1092.491211 531.847534,1094.525635 543.776123,1097.604004 
	C543.059204,1098.191406 541.940002,1099.050781 541.008850,1098.880737 
	C530.794617,1097.015015 520.384216,1096.083008 510.720459,1091.660889 
	C507.847839,1090.346436 504.153381,1090.946167 501.076538,1089.935181 
	C494.573761,1087.798584 488.262421,1085.086914 481.809021,1082.789551 
	C477.701996,1081.327515 473.376495,1080.448486 469.334320,1078.841675 
	C462.606995,1076.167603 456.064301,1073.032349 449.371552,1070.266357 
	C446.260071,1068.980469 442.885864,1068.309814 439.830383,1066.921143 
	C438.899200,1066.497925 438.633575,1064.610107 438.096069,1062.974976 
z"/>
<path fill="#D5CDB0" opacity="1.000000" stroke="none" 
	d="
M201.832916,820.191528 
	C208.107285,831.954895 213.610123,844.250366 220.208282,855.926941 
	C228.693634,870.943298 238.057846,885.462952 247.120758,900.534485 
	C245.120560,899.399414 242.371750,898.362000 241.083954,896.376831 
	C236.004395,888.546509 231.428589,880.391174 226.575378,872.411438 
	C223.755524,867.775024 220.597763,863.338928 217.886627,858.642639 
	C213.468491,850.989502 208.851883,843.398560 205.182755,835.385803 
	C203.087906,830.811157 202.703003,825.453613 201.832916,820.191528 
z"/>
<path fill="#D5CDB0" opacity="1.000000" stroke="none" 
	d="
M366.429779,1021.869507 
	C374.322418,1026.337158 381.877625,1031.487549 389.797241,1035.998291 
	C404.958191,1044.633545 420.326324,1052.905029 435.842621,1061.574219 
	C435.219147,1062.093750 434.134979,1062.848633 433.537567,1062.567871 
	C422.525024,1057.392334 411.326080,1052.536499 400.687683,1046.668213 
	C393.251678,1042.566528 386.662445,1036.949951 379.572083,1032.193237 
	C375.594940,1029.525146 371.330658,1027.287476 367.292389,1024.704956 
	C366.678040,1024.312134 366.588959,1023.097839 366.429779,1021.869507 
z"/>
<path fill="#D5CDB0" opacity="1.000000" stroke="none" 
	d="
M272.098511,934.205322 
	C282.496521,945.029541 292.725403,956.362183 303.272430,967.390442 
	C309.691986,974.102905 316.602234,980.346191 323.379639,987.093140 
	C321.772858,986.927246 319.592834,986.986267 318.462433,985.926208 
	C310.736969,978.680847 303.000092,971.420044 295.720245,963.734802 
	C288.295166,955.896240 281.337463,947.610229 274.308990,939.405457 
	C273.198334,938.109009 272.794281,936.207214 272.098511,934.205322 
z"/>
<path fill="#D5CDB0" opacity="1.000000" stroke="none" 
	d="
M784.104248,1087.037109 
	C790.622803,1084.127930 797.383484,1081.525269 804.140442,1078.912964 
	C804.891541,1078.622559 805.620850,1078.275757 806.682251,1077.747437 
	C807.802490,1077.319580 808.600647,1077.099365 810.032837,1076.688965 
	C812.775757,1075.546997 814.884705,1074.595215 817.281006,1073.677246 
	C818.033997,1073.443970 818.499512,1073.176758 819.333862,1072.851807 
	C822.764526,1071.760864 825.826477,1070.727783 828.917480,1070.077515 
	C828.964966,1070.972046 828.983398,1071.483521 829.001831,1071.995117 
	C824.057007,1074.262085 819.222046,1076.822998 814.139832,1078.722290 
	C807.722290,1081.120605 801.132263,1083.077515 794.558716,1085.029663 
	C791.219910,1086.021240 787.753784,1086.584229 784.104248,1087.037109 
z"/>
<path fill="#D5CDB0" opacity="1.000000" stroke="none" 
	d="
M247.091858,901.231201 
	C255.421463,911.626099 263.712158,922.420166 272.099487,933.539185 
	C269.786163,932.368652 266.704193,931.389893 265.086212,929.285583 
	C259.114807,921.519043 253.587357,913.408020 248.010193,905.345459 
	C247.327530,904.358582 247.354691,902.880737 247.091858,901.231201 
z"/>
<path fill="#D5CDB0" opacity="1.000000" stroke="none" 
	d="
M323.462830,987.825195 
	C333.394775,995.373474 343.170715,1003.278076 353.091949,1011.484741 
	C348.143036,1008.820679 342.721313,1006.289490 338.044556,1002.768799 
	C333.134918,999.072693 328.923035,994.445190 324.452789,990.175964 
	C323.920898,989.668030 323.681671,988.853760 323.462830,987.825195 
z"/>
<path fill="#D4CDB1" opacity="1.000000" stroke="none" 
	d="
M1080.970947,444.009766 
	C1077.055786,436.376007 1073.460327,428.591736 1069.812012,420.441498 
	C1074.784302,420.761780 1074.767090,425.618164 1076.635010,428.753967 
	C1078.852417,432.476715 1080.396362,436.621948 1081.983643,440.681213 
	C1082.312256,441.521698 1081.550049,442.788818 1080.970947,444.009766 
z"/>
<path fill="#D5CDB0" opacity="1.000000" stroke="none" 
	d="
M353.181702,1012.085327 
	C357.552887,1014.756226 361.889954,1017.795166 366.334534,1021.126343 
	C359.823914,1021.672607 356.723694,1016.710144 353.181702,1012.085327 
z"/>
<path fill="#D7CEB1" opacity="1.000000" stroke="none" 
	d="
M829.355225,1071.951172 
	C828.983398,1071.483521 828.964966,1070.972046 829.026855,1069.848022 
	C829.403687,1069.080811 829.700134,1068.926025 830.311768,1068.853271 
	C831.057556,1068.560913 831.488159,1068.186523 832.248657,1067.734863 
	C833.651855,1067.361450 834.725159,1067.065186 835.798462,1066.768921 
	C835.798462,1066.768921 835.896240,1066.879517 835.945190,1066.934570 
	C833.898926,1068.628906 831.803772,1070.267944 829.355225,1071.951172 
z"/>
<path fill="#D7CEB1" opacity="1.000000" stroke="none" 
	d="
M969.556885,978.448120 
	C970.242737,976.810730 971.328308,975.305176 972.683350,973.648560 
	C975.080872,976.019470 975.080872,976.019470 969.556885,978.448120 
z"/>
<path fill="#3B4732" opacity="1.000000" stroke="none" 
	d="
M359.387573,247.990646 
	C358.998047,247.806656 358.991211,247.615158 358.966614,247.136658 
	C360.172485,245.944534 361.396118,245.039413 362.908936,244.186707 
	C364.507446,247.732056 361.709076,247.464096 359.387573,247.990646 
z"/>
<path fill="#404C35" opacity="1.000000" stroke="none" 
	d="
M366.713257,241.132568 
	C366.426514,241.666306 365.831909,242.267242 364.878967,242.855667 
	C365.148895,242.295349 365.777161,241.747559 366.713257,241.132568 
z"/>
<path fill="#FCFDFC" opacity="1.000000" stroke="none" 
	d="
M585.000000,868.794678 
	C647.798035,868.741943 710.096069,868.687195 772.394104,868.635925 
	C774.226257,868.634399 776.061218,868.609070 777.890015,868.696655 
	C787.591858,869.161011 794.100403,875.978943 793.922974,885.451843 
	C793.748657,894.765320 786.845520,901.939758 777.507141,901.978088 
	C744.359558,902.114136 711.211365,902.128784 678.063354,902.127808 
	C620.762207,902.126099 563.461060,902.044189 506.159943,902.094421 
	C499.210388,902.100525 493.738373,899.657837 490.284302,893.652100 
	C483.742035,882.276794 491.363770,868.892883 504.544830,868.818176 
	C531.195740,868.667053 557.848206,868.785767 585.000000,868.794678 
z"/>
<path fill="#F7F8F6" opacity="1.000000" stroke="none" 
	d="
M563.961243,409.021118 
	C574.533813,379.209259 594.600098,359.341827 625.950012,353.243805 
	C656.144348,347.370544 681.784668,356.985901 702.286072,380.028748 
	C709.912170,388.600281 715.417664,398.334656 718.682129,409.897461 
	C718.252686,410.381989 717.729736,410.342743 717.101440,410.013000 
	C703.669006,395.510223 688.162964,384.818726 668.723755,379.793610 
	C665.263367,378.584625 662.039734,377.735779 658.919678,376.602173 
	C648.576111,372.844055 638.096802,372.684601 627.504700,375.241791 
	C604.298950,380.844269 583.529968,390.964722 566.553284,408.137909 
	C565.979004,408.718781 564.838074,408.739380 563.961243,409.021118 
z"/>
<path fill="#574F27" opacity="1.000000" stroke="none" 
	d="
M748.030701,470.977570 
	C757.285522,470.982605 766.541931,471.093567 775.794800,470.962067 
	C784.594177,470.837036 793.390015,470.458496 802.187378,470.191589 
	C807.241638,470.038269 814.496277,477.903870 814.917969,484.378479 
	C815.726318,496.791809 816.094727,509.237213 817.082825,521.634460 
	C817.923889,532.187317 819.416138,542.687256 820.544434,553.218750 
	C821.020386,557.662109 821.267334,562.129517 821.679016,566.580383 
	C822.426392,574.660461 823.284119,582.730774 823.978699,590.815247 
	C825.311157,606.322083 826.532166,621.838501 827.855774,637.346130 
	C828.855896,649.063293 829.875183,660.779602 831.011414,672.484070 
	C832.194885,684.673523 833.661133,696.836365 834.756531,709.033142 
	C835.684631,719.366943 836.126831,729.744019 837.025940,740.080933 
	C838.115967,752.612183 839.610718,765.109131 840.624695,777.645569 
	C841.065613,783.096680 841.278992,788.672852 840.637878,794.078552 
	C839.783752,801.279846 835.341309,804.289490 826.295898,804.959412 
	C824.638000,805.082275 822.964539,805.002991 821.298218,805.003052 
	C699.485474,805.004395 577.672791,805.004822 455.860046,805.003052 
	C447.382935,805.002930 441.164795,799.299316 441.108032,790.736267 
	C441.061890,783.783386 441.640106,776.808533 442.266998,769.872864 
	C443.384277,757.511414 444.805695,745.177856 445.992462,732.822266 
	C447.337952,718.814636 448.605927,704.799194 449.832275,690.780579 
	C450.943878,678.073181 451.850830,665.347229 453.035309,652.646973 
	C454.510468,636.829590 456.183350,621.030640 457.759613,605.222656 
	C458.515594,597.640869 459.389954,590.067261 459.957123,582.471069 
	C461.080109,567.429443 461.847626,552.359924 463.093262,537.329285 
	C464.555145,519.689331 466.368317,502.078430 468.031097,484.455109 
	C468.790497,476.406403 471.934845,471.757660 477.951080,470.646545 
	C480.290710,470.214447 482.832520,471.032928 485.272614,470.959930 
	C492.736633,470.736603 500.196381,470.095886 507.657043,470.107300 
	C516.119019,470.120270 524.580139,470.662781 533.911743,470.983643 
	C535.855042,470.995850 536.928345,470.999420 537.987427,471.384521 
	C537.931824,472.273346 537.890442,472.780640 537.411255,473.145203 
	C518.316711,472.929810 499.659729,472.767792 481.003693,472.844696 
	C476.081940,472.864990 471.785950,477.000977 471.008423,481.792969 
	C470.555542,484.584320 470.271790,487.408020 470.023956,490.227020 
	C467.895386,514.438110 465.885681,538.660034 463.660126,562.862122 
	C460.215118,600.325378 456.529999,637.766602 453.129211,675.233826 
	C449.864136,711.205872 446.891754,747.204468 443.668091,783.180359 
	C442.292511,798.531799 446.033173,802.914673 461.282104,803.078430 
	C464.614532,803.114258 467.947296,803.138611 471.279907,803.139038 
	C561.262329,803.150513 651.244751,803.166992 741.227173,803.161194 
	C768.721619,803.159424 796.216614,803.183105 823.710266,803.014587 
	C834.360840,802.949341 839.227844,797.650024 838.824585,787.021729 
	C838.641724,782.202393 838.097473,777.395264 837.664551,772.587280 
	C835.156494,744.734192 832.621521,716.883423 830.117432,689.029968 
	C827.628296,661.342957 825.190918,633.651306 822.683105,605.966003 
	C819.830139,574.469788 816.911194,542.979431 814.049438,511.483978 
	C813.251038,502.696564 812.658691,493.889404 811.779907,485.110504 
	C810.895142,476.272034 806.998779,472.806244 798.074097,472.784332 
	C781.744263,472.744293 765.414185,472.785431 749.084229,472.829529 
	C747.768494,472.833099 746.453552,473.120331 745.105652,472.899902 
	C745.040100,472.022339 745.007141,471.520660 745.355835,471.013947 
	C746.501953,470.998474 747.266296,470.988037 748.030701,470.977570 
z"/>
<path fill="#3B4732" opacity="1.000000" stroke="none" 
	d="
M1068.905518,839.170593 
	C1067.697754,842.563721 1066.195068,845.978577 1064.554199,849.325623 
	C1052.216309,874.491272 1037.475708,898.190979 1020.137939,920.186890 
	C1011.048279,931.718689 1001.110535,942.581970 991.267700,953.746155 
	C990.798096,952.690857 990.616516,951.636475 990.995117,950.152344 
	C992.368164,948.815796 993.181091,947.909119 993.994019,947.002441 
	C997.888000,942.533691 1001.782043,938.064941 1006.122925,933.149170 
	C1007.045715,931.803101 1007.521667,930.904053 1007.997620,930.005005 
	C1008.314331,929.532654 1008.631042,929.060303 1009.290894,928.243774 
	C1010.087708,927.267273 1010.541382,926.634949 1010.995117,926.002625 
	C1016.056763,918.898621 1021.120667,911.796204 1026.179443,904.690186 
	C1031.324463,897.463196 1036.784668,890.435730 1041.529663,882.954773 
	C1048.201294,872.436523 1054.677490,861.760437 1060.537231,850.778320 
	C1062.814819,846.509705 1064.061890,841.810364 1068.905518,839.170593 
z"/>
<path fill="#674E3A" opacity="1.000000" stroke="none" 
	d="
M563.701111,409.221741 
	C564.838074,408.739380 565.979004,408.718781 566.553284,408.137909 
	C583.529968,390.964722 604.298950,380.844269 627.504700,375.241791 
	C638.096802,372.684601 648.576111,372.844055 658.919678,376.602173 
	C662.039734,377.735779 665.263367,378.584625 668.438354,380.063843 
	C667.297241,380.691681 666.148926,380.981476 665.018677,380.922668 
	C653.288330,380.312164 641.566223,379.346954 629.830017,379.134155 
	C624.787537,379.042755 619.449463,379.722992 614.720337,381.394989 
	C606.926392,384.150574 599.315796,387.619568 592.024780,391.528076 
	C587.809998,393.787537 584.393066,397.522827 580.579712,400.546753 
	C576.553467,403.739563 572.412170,406.791046 568.456482,410.067749 
	C565.849609,412.227142 563.482117,414.675476 561.007935,416.618378 
	C561.004700,415.489563 561.001099,414.736847 560.997559,413.984131 
	C561.812012,412.463562 562.626526,410.942963 563.701111,409.221741 
z"/>
<path fill="#3D4934" opacity="1.000000" stroke="none" 
	d="
M835.973083,1066.467041 
	C834.725159,1067.065186 833.651855,1067.361450 832.073242,1067.553345 
	C831.044189,1067.889771 830.520447,1068.330566 829.996582,1068.771240 
	C829.700134,1068.926025 829.403687,1069.080811 828.997803,1069.465088 
	C825.826477,1070.727783 822.764526,1071.760864 819.172729,1072.656982 
	C818.093140,1072.894531 817.543396,1073.268921 816.993652,1073.643311 
	C814.884705,1074.595215 812.775757,1075.546997 810.322632,1076.544067 
	C808.914001,1074.339233 809.561218,1073.151611 811.926147,1072.070312 
	C820.222656,1068.277222 828.389404,1064.200317 836.604553,1060.229370 
	C837.054443,1060.011841 837.498413,1059.579346 837.942810,1059.582397 
	C849.806030,1059.667358 857.439514,1050.504028 867.308716,1046.292236 
	C876.445557,1042.393066 884.518860,1037.188599 892.161926,1030.928223 
	C894.144531,1029.304321 897.970642,1029.931274 901.015503,1029.867188 
	C884.064087,1039.930176 867.079895,1049.708496 850.007996,1059.331299 
	C845.527466,1061.856812 840.775146,1063.900269 835.973083,1066.467041 
z"/>
<path fill="#544930" opacity="1.000000" stroke="none" 
	d="
M748.014160,470.605072 
	C747.266296,470.988037 746.501953,470.998474 744.996826,470.923035 
	C743.847107,469.224426 743.438171,467.611755 743.352051,465.939941 
	C743.455383,464.919525 743.235840,463.958191 742.745361,462.726044 
	C740.694092,456.971588 739.444702,451.239288 737.017944,446.058472 
	C732.577454,436.578827 730.083496,426.041870 722.101562,418.362579 
	C719.912109,416.256134 718.808655,413.020782 717.206787,410.303528 
	C717.729736,410.342743 718.252686,410.381989 718.923828,410.184326 
	C722.009583,412.672394 725.211243,415.170990 727.802307,418.193054 
	C729.919617,420.662659 731.469971,423.673218 732.983154,426.593475 
	C735.431946,431.319458 737.650513,436.164978 739.952454,440.966644 
	C740.714966,442.557220 741.430115,444.170471 742.175415,445.769409 
	C743.083069,447.716766 744.420288,449.574982 744.833923,451.620880 
	C746.080566,457.785950 746.969299,464.023376 748.014160,470.605072 
z"/>
<path fill="#524A33" opacity="1.000000" stroke="none" 
	d="
M560.655640,414.033264 
	C561.001099,414.736847 561.004700,415.489563 560.942017,416.957062 
	C559.616638,419.373718 558.140808,420.957794 557.139709,422.799927 
	C554.333679,427.963104 551.867065,433.312805 549.004761,438.442871 
	C543.975647,447.456543 540.775513,456.982849 539.909485,467.305878 
	C539.802368,468.582611 538.662781,469.772766 538.001648,471.002991 
	C536.928345,470.999420 535.855042,470.995850 534.378540,470.981384 
	C535.685669,465.760590 537.220581,460.484924 539.142334,455.354156 
	C543.291260,444.277283 547.295227,433.121521 552.110718,422.333740 
	C553.588745,419.022491 557.510803,416.802246 560.655640,414.033264 
z"/>
<path fill="#3B4732" opacity="1.000000" stroke="none" 
	d="
M989.052734,956.780518 
	C988.203064,956.496094 987.635498,956.040955 987.024353,955.288513 
	C988.007019,954.474365 989.033325,953.957581 990.392334,953.706299 
	C990.261597,954.851074 989.798218,955.730469 989.052734,956.780518 
z"/>
<path fill="#3D4934" opacity="1.000000" stroke="none" 
	d="
M993.627441,947.012207 
	C993.181091,947.909119 992.368164,948.815796 991.277710,949.856384 
	C991.753662,949.000854 992.507263,948.011414 993.627441,947.012207 
z"/>
<path fill="#3D4934" opacity="1.000000" stroke="none" 
	d="
M1007.659302,930.066345 
	C1007.521667,930.904053 1007.045715,931.803101 1006.286133,932.848755 
	C1006.441956,932.039490 1006.881470,931.083618 1007.659302,930.066345 
z"/>
<path fill="#3D4934" opacity="1.000000" stroke="none" 
	d="
M1010.680481,926.051392 
	C1010.541382,926.634949 1010.087708,927.267273 1009.319458,927.948608 
	C1009.458618,927.365112 1009.912231,926.732605 1010.680481,926.051392 
z"/>
<path fill="#3D4934" opacity="1.000000" stroke="none" 
	d="
M806.831421,1076.823730 
	C806.899353,1076.978882 806.450989,1076.987183 806.226807,1076.985840 
	C806.256348,1076.879272 806.509949,1076.774048 806.831421,1076.823730 
z"/>
<path fill="#404C35" opacity="1.000000" stroke="none" 
	d="
M817.281006,1073.677246 
	C817.543396,1073.268921 818.093140,1072.894531 818.803955,1072.714844 
	C818.499512,1073.176758 818.033997,1073.443970 817.281006,1073.677246 
z"/>
<path fill="#404C35" opacity="1.000000" stroke="none" 
	d="
M830.311768,1068.853271 
	C830.520447,1068.330566 831.044189,1067.889771 831.743408,1067.630615 
	C831.488159,1068.186523 831.057556,1068.560913 830.311768,1068.853271 
z"/>
<path fill="#754526" opacity="1.000000" stroke="none" 
	d="
M537.987427,471.384521 
	C538.662781,469.772766 539.802368,468.582611 539.909485,467.305878 
	C540.775513,456.982849 543.975647,447.456543 549.004761,438.442871 
	C551.867065,433.312805 554.333679,427.963104 557.139709,422.799927 
	C558.140808,420.957794 559.616638,419.373718 560.941650,417.333160 
	C563.482117,414.675476 565.849609,412.227142 568.456482,410.067749 
	C572.412170,406.791046 576.553467,403.739563 580.579712,400.546753 
	C584.393066,397.522827 587.809998,393.787537 592.024780,391.528076 
	C599.315796,387.619568 606.926392,384.150574 614.720337,381.394989 
	C619.449463,379.722992 624.787537,379.042755 629.830017,379.134155 
	C641.566223,379.346954 653.288330,380.312164 665.018677,380.922668 
	C666.148926,380.981476 667.297241,380.691681 668.722595,380.293518 
	C688.162964,384.818726 703.669006,395.510223 717.101440,410.012970 
	C718.808655,413.020782 719.912109,416.256134 722.101562,418.362579 
	C730.083496,426.041870 732.577454,436.578827 737.017944,446.058472 
	C739.444702,451.239288 740.694092,456.971588 742.739502,463.101410 
	C743.012817,464.498108 743.021057,465.248566 743.029297,465.999054 
	C743.438171,467.611755 743.847107,469.224426 744.615112,470.928040 
	C745.007141,471.520660 745.040100,472.022339 745.197144,473.281403 
	C745.565674,484.232330 745.699463,494.430603 746.133789,504.616089 
	C746.239868,507.103760 747.330933,509.549438 747.604004,512.019897 
	C746.509705,513.015198 745.780396,514.004944 745.039062,515.405823 
	C744.740051,520.246582 744.287537,524.784790 738.931274,525.918396 
	C732.778992,527.220581 731.069702,525.952271 728.084961,519.284973 
	C727.555115,518.101440 726.682129,517.071533 725.961548,515.586365 
	C724.843567,514.411255 723.731506,513.620422 722.733643,512.454590 
	C723.612122,510.307922 725.004639,508.547668 725.036804,506.762878 
	C725.218445,496.697388 724.998657,486.625366 725.085876,476.557037 
	C725.111450,473.603027 723.731934,472.364899 721.063477,471.547516 
	C720.877441,465.962341 721.863708,460.460907 720.314819,455.802429 
	C715.509583,441.350098 707.530945,428.689362 695.691284,418.341888 
	C693.922913,415.833954 692.747009,412.898041 690.580933,411.531036 
	C684.546814,407.722900 678.299561,404.108185 671.761963,401.284119 
	C665.603760,398.623993 659.083496,395.919342 652.519592,395.262512 
	C638.369019,393.846497 624.243225,394.809753 610.627075,401.002258 
	C609.170227,401.666870 608.086365,402.332825 606.753540,403.002655 
	C606.504639,403.006500 606.006897,403.013824 605.638123,403.014923 
	C601.841675,405.673492 598.414001,408.330994 594.663391,411.045166 
	C592.888794,412.396179 591.437073,413.690460 589.633423,415.029633 
	C584.739014,417.005035 580.910767,419.614777 579.544434,424.941193 
	C577.628723,426.009247 575.504150,426.709869 574.639038,428.161285 
	C568.344299,438.721802 560.445801,448.385132 558.435547,461.266235 
	C557.798157,465.349945 556.756836,468.774780 558.879333,472.710449 
	C558.403381,483.047760 557.975403,493.066101 558.032104,503.081696 
	C558.050842,506.396576 559.317749,509.704346 559.700867,513.186340 
	C558.936951,514.888245 558.486206,516.419128 557.770264,518.160217 
	C556.827820,519.311218 555.999756,520.178650 555.499390,521.205688 
	C553.295227,525.729797 549.111816,527.100342 545.085938,525.703491 
	C542.564453,524.828491 540.904114,521.303711 539.015808,518.846130 
	C538.134583,517.699280 537.629089,516.263733 536.967102,514.571411 
	C536.548767,513.044067 536.116699,511.904419 535.911255,510.418396 
	C536.441589,508.000977 536.945251,505.936707 537.014954,503.857849 
	C537.356445,493.670013 537.582275,483.478302 537.848999,473.287964 
	C537.890442,472.780640 537.931824,472.273346 537.987427,471.384521 
z"/>
<path fill="#DFA865" opacity="1.000000" stroke="none" 
	d="
M560.014038,513.015381 
	C559.317749,509.704346 558.050842,506.396576 558.032104,503.081696 
	C557.975403,493.066101 558.403381,483.047760 559.265381,472.660339 
	C560.399597,472.201538 560.910828,472.112915 561.781128,472.163147 
	C569.157471,472.468109 576.174744,472.634155 583.647827,472.782715 
	C622.433838,472.784119 660.763855,472.802979 699.528076,472.768524 
	C707.000244,472.482422 714.038147,472.249634 721.076111,472.016876 
	C723.731934,472.364899 725.111450,473.603027 725.085876,476.557037 
	C724.998657,486.625366 725.218445,496.697388 725.036804,506.762878 
	C725.004639,508.547668 723.612122,510.307922 722.495850,512.713501 
	C721.574463,514.720398 720.823975,516.047852 720.466553,517.473877 
	C718.838379,523.969727 721.741577,531.101440 727.213989,534.324890 
	C732.934692,537.694397 741.377625,536.763855 746.219849,532.230164 
	C751.520264,527.267395 752.434326,521.797852 749.134644,514.917603 
	C749.147278,514.970581 749.163513,514.862732 749.059204,514.568481 
	C748.626404,513.520874 748.297791,512.767639 747.969116,512.014404 
	C747.330933,509.549438 746.239868,507.103760 746.133789,504.616089 
	C745.699463,494.430603 745.565674,484.232330 745.229736,473.657288 
	C746.453552,473.120331 747.768494,472.833099 749.084229,472.829529 
	C765.414185,472.785431 781.744263,472.744293 798.074097,472.784332 
	C806.998779,472.806244 810.895142,476.272034 811.779907,485.110504 
	C812.658691,493.889404 813.251038,502.696564 814.049438,511.483978 
	C816.911194,542.979431 819.830139,574.469788 822.683105,605.966003 
	C825.190918,633.651306 827.628296,661.342957 830.117432,689.029968 
	C832.621521,716.883423 835.156494,744.734192 837.664551,772.587280 
	C838.097473,777.395264 838.641724,782.202393 838.824585,787.021729 
	C839.227844,797.650024 834.360840,802.949341 823.710266,803.014587 
	C796.216614,803.183105 768.721619,803.159424 741.227173,803.161194 
	C651.244751,803.166992 561.262329,803.150513 471.279907,803.139038 
	C467.947296,803.138611 464.614532,803.114258 461.282104,803.078430 
	C446.033173,802.914673 442.292511,798.531799 443.668091,783.180359 
	C446.891754,747.204468 449.864136,711.205872 453.129211,675.233826 
	C456.529999,637.766602 460.215118,600.325378 463.660126,562.862122 
	C465.885681,538.660034 467.895386,514.438110 470.023956,490.227020 
	C470.271790,487.408020 470.555542,484.584320 471.008423,481.792969 
	C471.785950,477.000977 476.081940,472.864990 481.003693,472.844696 
	C499.659729,472.767792 518.316711,472.929810 537.411194,473.145203 
	C537.582275,483.478302 537.356445,493.670013 537.014954,503.857849 
	C536.945251,505.936707 536.441589,508.000977 535.614990,510.609741 
	C530.456116,518.077332 530.558350,525.980835 535.353210,531.337708 
	C540.354431,536.925171 548.230835,538.290894 554.832092,534.715210 
	C562.413269,530.608704 564.315918,522.641174 560.014038,513.015381 
M822.011597,627.344421 
	C821.024048,617.460571 819.992676,607.580811 819.058472,597.691895 
	C817.361023,579.723755 815.679382,561.753906 814.069092,543.777771 
	C812.340149,524.476746 810.696106,505.168060 809.025330,485.861786 
	C808.480530,479.566376 804.403137,475.139160 798.223999,475.065216 
	C782.727600,474.879761 767.227417,475.040802 751.729187,474.960541 
	C748.910706,474.945953 747.918579,476.034698 747.958740,478.801941 
	C748.071350,486.557617 747.943542,494.316742 748.055176,502.072418 
	C748.075806,503.507446 748.851929,504.916748 749.142700,506.365326 
	C750.405029,512.654480 755.622437,517.760559 753.233154,525.276917 
	C750.964783,532.412964 746.731140,537.879272 739.937439,538.962280 
	C730.696045,540.435486 723.336853,536.947815 719.632141,530.082764 
	C716.242432,523.801147 716.338501,518.041443 719.978638,511.935181 
	C721.498169,509.386169 722.721436,506.290894 722.885925,503.376617 
	C723.294312,496.141663 723.047363,488.867737 723.002991,481.609833 
	C722.967957,475.879639 722.085266,475.003021 716.233521,475.001343 
	C666.238037,474.986969 616.242249,475.076294 566.247620,474.871155 
	C561.064514,474.849884 559.912720,477.667938 559.799988,481.387878 
	C559.578430,488.702881 559.722473,496.042572 560.085144,503.353729 
	C560.202881,505.725800 561.048035,508.301025 562.291077,510.337402 
	C568.297424,520.177551 564.262695,533.927551 553.841492,538.428772 
	C546.813965,541.464172 538.790344,539.440125 532.575256,533.064087 
	C528.657715,529.045227 527.856079,520.502502 530.796753,514.421204 
	C533.304871,509.234283 536.362915,504.189056 534.097046,497.976929 
	C533.676270,496.823212 534.136047,495.342896 534.211548,494.014557 
	C534.465576,489.549286 534.881897,485.086700 534.943970,480.619019 
	C534.998535,476.693878 533.321167,474.801086 528.849365,474.888977 
	C514.522888,475.170380 500.187347,474.977081 485.855347,475.003540 
	C477.981567,475.018066 473.069122,479.978149 472.986542,487.879547 
	C472.972656,489.209808 472.924469,490.543488 472.808990,491.868347 
	C471.543610,506.384949 470.328918,520.906433 468.962616,535.413635 
	C467.907288,546.619080 466.657928,557.806335 465.491669,569.001343 
	C464.326874,580.182068 463.047882,591.352356 462.033722,602.546692 
	C461.450226,608.987000 461.232483,615.463440 460.964569,621.928345 
	C460.781891,626.336121 460.994690,630.767090 460.660278,635.159485 
	C460.402344,638.547668 459.440552,641.876282 459.023651,645.259888 
	C458.518005,649.363892 458.388153,653.514954 457.858917,657.615051 
	C457.011963,664.177124 455.642395,670.685791 455.073700,677.267090 
	C453.533173,695.095520 452.298950,712.950378 450.940369,730.794495 
	C450.550354,735.917236 450.204407,741.044006 449.744781,746.160583 
	C448.515198,759.848816 446.911407,773.513062 446.085602,787.224670 
	C445.511444,796.758118 450.207062,801.001709 459.878815,801.002319 
	C581.034546,801.009949 702.190247,801.011108 823.345947,801.013123 
	C824.345764,801.013123 825.352905,801.077209 826.344177,800.981995 
	C830.686584,800.565002 834.771973,796.858582 834.951233,792.493347 
	C835.221313,785.917236 835.257812,779.309937 834.949951,772.736694 
	C834.445740,761.971985 833.854309,751.197815 832.814026,740.474731 
	C831.088135,722.684814 828.791992,704.950012 827.077881,687.159058 
	C825.189087,667.555603 823.685852,647.914978 822.011597,627.344421 
z"/>
<path fill="#574F27" opacity="1.000000" stroke="none" 
	d="
M743.352173,465.939941 
	C743.021057,465.248566 743.012817,464.498108 743.010437,463.372253 
	C743.235840,463.958191 743.455383,464.919525 743.352173,465.939941 
z"/>
<path fill="#F6F6F2" opacity="1.000000" stroke="none" 
	d="
M721.063477,471.547516 
	C714.038147,472.249634 707.000244,472.482422 699.551453,472.456543 
	C699.070068,471.786743 698.999573,471.375580 698.998657,470.503601 
	C699.116638,460.730255 699.629333,451.389496 699.066040,442.114105 
	C698.617310,434.723969 696.855713,427.413605 695.791016,419.716492 
	C695.880737,419.120056 695.856323,418.875000 695.831909,418.629913 
	C707.530945,428.689362 715.509583,441.350098 720.314819,455.802429 
	C721.863708,460.460907 720.877441,465.962341 721.063477,471.547516 
z"/>
<path fill="#554932" opacity="1.000000" stroke="none" 
	d="
M695.691284,418.341888 
	C695.856323,418.875000 695.880737,419.120056 695.446899,419.688416 
	C693.982483,419.490997 692.816040,419.150970 691.994568,418.422150 
	C682.349060,409.864777 671.686096,402.932068 658.880737,400.561890 
	C644.041687,397.815247 629.136353,396.688171 614.777039,403.464417 
	C611.383667,405.065765 607.595215,405.829865 604.044922,406.655518 
	C604.736511,405.225891 605.371704,404.119843 606.006897,403.013824 
	C606.006897,403.013824 606.504639,403.006500 607.126099,403.003235 
	C608.831726,402.334534 609.915894,401.669098 611.000000,401.003662 
	C624.243225,394.809753 638.369019,393.846497 652.519592,395.262512 
	C659.083496,395.919342 665.603760,398.623993 671.761963,401.284119 
	C678.299561,404.108185 684.546814,407.722900 690.580933,411.531036 
	C692.747009,412.898041 693.922913,415.833954 695.691284,418.341888 
z"/>
<path fill="#474A32" opacity="1.000000" stroke="none" 
	d="
M536.953308,514.959045 
	C537.629089,516.263733 538.134583,517.699280 539.015808,518.846130 
	C540.904114,521.303711 542.564453,524.828491 545.085938,525.703491 
	C549.111816,527.100342 553.295227,525.729797 555.499390,521.205688 
	C555.999756,520.178650 556.827820,519.311218 558.139771,518.232422 
	C559.511841,519.413330 560.841125,520.712830 560.884827,522.054260 
	C561.081787,528.100647 551.937927,535.797913 545.875305,534.949890 
	C540.346375,534.176514 532.730286,525.304138 533.479248,519.888367 
	C533.723938,518.118958 535.744751,516.595154 536.953308,514.959045 
z"/>
<path fill="#474A35" opacity="1.000000" stroke="none" 
	d="
M725.967590,515.970703 
	C726.682129,517.071533 727.555115,518.101440 728.084961,519.284973 
	C731.069702,525.952271 732.778992,527.220581 738.931274,525.918396 
	C744.287537,524.784790 744.740051,520.246582 745.447632,515.406860 
	C746.966675,514.952148 748.065125,514.907410 749.163513,514.862732 
	C749.163513,514.862732 749.147278,514.970581 749.095642,515.378662 
	C749.033813,517.113892 749.020081,518.441162 749.013977,519.768372 
	C748.989563,525.038147 743.437500,533.079346 739.223083,533.945801 
	C732.401672,535.348145 725.792847,531.991882 722.843445,525.627380 
	C721.173401,522.023621 722.710999,517.270996 725.967590,515.970703 
z"/>
<path fill="#55441C" opacity="1.000000" stroke="none" 
	d="
M536.967102,514.571411 
	C535.744751,516.595154 533.723938,518.118958 533.479248,519.888367 
	C532.730286,525.304138 540.346375,534.176514 545.875305,534.949890 
	C551.937927,535.797913 561.081787,528.100647 560.884827,522.054260 
	C560.841125,520.712830 559.511841,519.413330 558.404907,518.022278 
	C558.486206,516.419128 558.936951,514.888245 559.700867,513.186340 
	C564.315918,522.641174 562.413269,530.608704 554.832092,534.715210 
	C548.230835,538.290894 540.354431,536.925171 535.353210,531.337708 
	C530.558350,525.980835 530.456116,518.077332 535.388306,510.956116 
	C536.116699,511.904419 536.548767,513.044067 536.967102,514.571411 
z"/>
<path fill="#63462F" opacity="1.000000" stroke="none" 
	d="
M561.422058,472.024292 
	C560.910828,472.112915 560.399597,472.201538 559.502319,472.340302 
	C556.756836,468.774780 557.798157,465.349945 558.435547,461.266235 
	C560.445801,448.385132 568.344299,438.721802 574.639038,428.161285 
	C575.504150,426.709869 577.628723,426.009247 579.594788,424.987610 
	C580.019409,425.014191 580.118713,425.106171 580.029175,425.434296 
	C569.331909,439.407745 559.457581,453.346619 561.422058,472.024292 
z"/>
<path fill="#54451E" opacity="1.000000" stroke="none" 
	d="
M725.961548,515.586365 
	C722.710999,517.270996 721.173401,522.023621 722.843445,525.627380 
	C725.792847,531.991882 732.401672,535.348145 739.223083,533.945801 
	C743.437500,533.079346 748.989563,525.038147 749.013977,519.768372 
	C749.020081,518.441162 749.033813,517.113892 749.083008,515.325623 
	C752.434326,521.797852 751.520264,527.267395 746.219849,532.230164 
	C741.377625,536.763855 732.934692,537.694397 727.213989,534.324890 
	C721.741577,531.101440 718.838379,523.969727 720.466553,517.473877 
	C720.823975,516.047852 721.574463,514.720398 722.381714,513.088623 
	C723.731506,513.620422 724.843567,514.411255 725.961548,515.586365 
z"/>
<path fill="#554932" opacity="1.000000" stroke="none" 
	d="
M589.985352,414.984772 
	C591.437073,413.690460 592.888794,412.396179 595.019165,411.004578 
	C597.460144,410.268311 599.222473,409.629303 600.932739,409.328979 
	C597.259644,412.111237 593.638489,414.554840 590.011108,416.662933 
	C589.998352,415.879883 589.991821,415.432312 589.985352,414.984772 
z"/>
<path fill="#63462F" opacity="1.000000" stroke="none" 
	d="
M589.633423,415.029633 
	C589.991821,415.432312 589.998352,415.879883 590.003540,416.666260 
	C590.002319,417.005066 589.999512,417.017639 589.716309,417.157104 
	C588.957886,418.178589 588.482605,419.060577 587.827637,419.967896 
	C587.647949,419.993256 587.286316,420.024902 587.162781,419.705811 
	C584.732361,421.293182 582.425537,423.199677 580.118713,425.106140 
	C580.118713,425.106171 580.019409,425.014191 579.969116,424.967773 
	C580.910767,419.614777 584.739014,417.005035 589.633423,415.029633 
z"/>
<path fill="#63462F" opacity="1.000000" stroke="none" 
	d="
M600.984741,408.990295 
	C599.222473,409.629303 597.460144,410.268311 595.342041,410.947876 
	C598.414001,408.330994 601.841675,405.673492 605.638123,403.014923 
	C605.371704,404.119843 604.736511,405.225891 603.802612,406.666809 
	C603.503845,407.001648 603.018494,407.012177 602.700684,407.054626 
	C601.919006,407.726349 601.455139,408.355621 600.995056,408.990692 
	C600.998840,408.996490 600.984741,408.990295 600.984741,408.990295 
z"/>
<path fill="#54451E" opacity="1.000000" stroke="none" 
	d="
M749.059204,514.568481 
	C748.065125,514.907410 746.966675,514.952148 745.459717,514.995728 
	C745.780396,514.004944 746.509705,513.015198 747.604065,512.019897 
	C748.297791,512.767639 748.626404,513.520874 749.059204,514.568481 
z"/>
<path fill="#63462F" opacity="1.000000" stroke="none" 
	d="
M610.627075,401.002258 
	C609.915894,401.669098 608.831726,402.334534 607.375000,402.999390 
	C608.086365,402.332825 609.170227,401.666870 610.627075,401.002258 
z"/>
<path fill="#F6A248" opacity="1.000000" stroke="none" 
	d="
M822.013184,627.817505 
	C823.685852,647.914978 825.189087,667.555603 827.077881,687.159058 
	C828.791992,704.950012 831.088135,722.684814 832.814026,740.474731 
	C833.854309,751.197815 834.445740,761.971985 834.949951,772.736694 
	C835.257812,779.309937 835.221313,785.917236 834.951233,792.493347 
	C834.771973,796.858582 830.686584,800.565002 826.344177,800.981995 
	C825.352905,801.077209 824.345764,801.013123 823.345947,801.013123 
	C702.190247,801.011108 581.034546,801.009949 459.878815,801.002319 
	C450.207062,801.001709 445.511444,796.758118 446.085602,787.224670 
	C446.911407,773.513062 448.515198,759.848816 449.744781,746.160583 
	C450.204407,741.044006 450.550354,735.917236 450.940369,730.794495 
	C452.298950,712.950378 453.533173,695.095520 455.073700,677.267090 
	C455.642395,670.685791 457.011963,664.177124 457.858917,657.615051 
	C458.388153,653.514954 458.518005,649.363892 459.023651,645.259888 
	C459.440552,641.876282 460.402344,638.547668 460.660278,635.159485 
	C460.994690,630.767090 460.781891,626.336121 460.964569,621.928345 
	C461.232483,615.463440 461.450226,608.987000 462.033722,602.546692 
	C463.047882,591.352356 464.326874,580.182068 465.491669,569.001343 
	C466.657928,557.806335 467.907288,546.619080 468.962616,535.413635 
	C470.328918,520.906433 471.543610,506.384949 472.808990,491.868347 
	C472.924469,490.543488 472.972656,489.209808 472.986542,487.879547 
	C473.069122,479.978149 477.981567,475.018066 485.855347,475.003540 
	C500.187347,474.977081 514.522888,475.170380 528.849365,474.888977 
	C533.321167,474.801086 534.998535,476.693878 534.943970,480.619019 
	C534.881897,485.086700 534.465576,489.549286 534.211548,494.014557 
	C534.136047,495.342896 533.676270,496.823212 534.097046,497.976929 
	C536.362915,504.189056 533.304871,509.234283 530.796753,514.421204 
	C527.856079,520.502502 528.657715,529.045227 532.575256,533.064087 
	C538.790344,539.440125 546.813965,541.464172 553.841492,538.428772 
	C564.262695,533.927551 568.297424,520.177551 562.291077,510.337402 
	C561.048035,508.301025 560.202881,505.725800 560.085144,503.353729 
	C559.722473,496.042572 559.578430,488.702881 559.799988,481.387878 
	C559.912720,477.667938 561.064514,474.849884 566.247620,474.871155 
	C616.242249,475.076294 666.238037,474.986969 716.233521,475.001343 
	C722.085266,475.003021 722.967957,475.879639 723.002991,481.609833 
	C723.047363,488.867737 723.294312,496.141663 722.885925,503.376617 
	C722.721436,506.290894 721.498169,509.386169 719.978638,511.935181 
	C716.338501,518.041443 716.242432,523.801147 719.632141,530.082764 
	C723.336853,536.947815 730.696045,540.435486 739.937439,538.962280 
	C746.731140,537.879272 750.964783,532.412964 753.233154,525.276917 
	C755.622437,517.760559 750.405029,512.654480 749.142700,506.365326 
	C748.851929,504.916748 748.075806,503.507446 748.055176,502.072418 
	C747.943542,494.316742 748.071350,486.557617 747.958740,478.801941 
	C747.918579,476.034698 748.910706,474.945953 751.729187,474.960541 
	C767.227417,475.040802 782.727600,474.879761 798.223999,475.065216 
	C804.403137,475.139160 808.480530,479.566376 809.025330,485.861786 
	C810.696106,505.168060 812.340149,524.476746 814.069092,543.777771 
	C815.679382,561.753906 817.361023,579.723755 819.058472,597.691895 
	C819.992676,607.580811 821.024048,617.460571 822.013184,627.817505 
z"/>
<path fill="#F8F8F4" opacity="1.000000" stroke="none" 
	d="
M580.029175,425.434265 
	C582.425537,423.199677 584.732361,421.293182 586.986694,420.067078 
	C582.106018,437.227509 583.528748,454.142365 583.311462,471.243469 
	C583.184875,471.956543 583.188416,472.378387 583.191956,472.800232 
	C576.174744,472.634155 569.157471,472.468109 561.781128,472.163147 
	C559.457581,453.346619 569.331909,439.407745 580.029175,425.434265 
z"/>
<path fill="#6A5B31" opacity="1.000000" stroke="none" 
	d="
M583.647827,472.782715 
	C583.188416,472.378387 583.184875,471.956543 583.750732,471.259399 
	C622.523071,470.977539 660.726074,470.970978 698.929016,470.964447 
	C698.999573,471.375580 699.070068,471.786743 699.117310,472.509857 
	C660.763855,472.802979 622.433838,472.784119 583.647827,472.782715 
z"/>
<path fill="#384F3E" opacity="1.000000" stroke="none" 
	d="
M698.998657,470.503601 
	C660.726074,470.970978 622.523071,470.977539 583.880859,470.968140 
	C583.528748,454.142365 582.106018,437.227509 587.110229,420.386169 
	C587.286316,420.024902 587.647949,419.993256 588.165405,419.924072 
	C589.121704,418.909149 589.560608,417.963379 589.999512,417.017639 
	C589.999512,417.017639 590.002319,417.005066 590.009827,417.001770 
	C593.638489,414.554840 597.259644,412.111237 600.932739,409.328979 
	C600.984741,408.990295 600.998840,408.996490 601.311890,408.947693 
	C602.089417,408.269958 602.553955,407.641052 603.018494,407.012177 
	C603.018494,407.012177 603.503845,407.001648 603.746216,406.990356 
	C607.595215,405.829865 611.383667,405.065765 614.777039,403.464417 
	C629.136353,396.688171 644.041687,397.815247 658.880737,400.561890 
	C671.686096,402.932068 682.349060,409.864777 691.994568,418.422150 
	C692.816040,419.150970 693.982483,419.490997 695.332764,420.039734 
	C696.855713,427.413605 698.617310,434.723969 699.066040,442.114105 
	C699.629333,451.389496 699.116638,460.730255 698.998657,470.503601 
z"/>
<path fill="#554932" opacity="1.000000" stroke="none" 
	d="
M589.716309,417.157104 
	C589.560608,417.963379 589.121704,418.909149 588.345093,419.898743 
	C588.482605,419.060577 588.957886,418.178589 589.716309,417.157104 
z"/>
<path fill="#554932" opacity="1.000000" stroke="none" 
	d="
M602.700684,407.054626 
	C602.553955,407.641052 602.089417,408.269958 601.308105,408.941895 
	C601.455139,408.355621 601.919006,407.726349 602.700684,407.054626 
z"/>
</svg>